<svg fill="none" height="44" viewBox="0 0 60 44" width="60" xmlns="http://www.w3.org/2000/svg"><path d="m14.964 43.3735c-4.1247 0-7.67383-1.5957-10.64745-4.787-2.8777-3.2881-4.31655-7.9784-4.31655-14.071 0-7.7367 1.96643-13.7326 5.89928-17.98771 4.02878-4.35186 9.68822-6.52779 16.97842-6.52779 1.9185 0 3.8762.14506 5.3151.43518v7.9784c-2.2063-.29012-4.2599-.43518-5.6029-.43518-4.0287 0-7.1463 1.2572-9.3525 3.7716-2.2062 2.2243-3.45323 4.9805-3.741 8.2685 1.3429-1.644 3.4532-2.466 6.3309-2.466 3.5492 0 6.4749 1.2572 8.777 3.7716 2.3022 2.4177 3.4533 5.464 3.4533 9.1389 0 3.7716-1.247 6.8663-3.7411 9.2839-2.398 2.4177-5.5155 3.6266-9.3525 3.6266zm31.9425 0c-4.1247 0-7.6739-1.5957-10.6475-4.787-2.8777-3.2881-4.3166-7.9784-4.3166-14.071 0-7.7367 1.9665-13.7326 5.8993-17.98771 4.0288-4.35186 9.6883-6.52779 16.9784-6.52779 1.9185 0 3.7411.14506 5.1799.43518v7.9784c-2.2062-.29012-4.1247-.43518-5.4676-.43518-4.0288 0-7.1463 1.2572-9.3525 3.7716-2.2063 2.2243-3.4533 4.9805-3.741 8.2685 1.3429-1.644 3.4532-2.466 6.3309-2.466 3.5491 0 6.4748 1.2572 8.777 3.7716 2.3021 2.4177 3.4532 5.464 3.4532 9.1389 0 3.7716-1.247 6.8663-3.741 9.2839-2.3981 2.4177-5.5156 3.6266-9.3525 3.6266z" fill="#f3f1fd"/></svg>