<svg enable-background="new 0 0 23 18" viewBox="0 0 23 18" xmlns="http://www.w3.org/2000/svg"><path d="m22.5 2.1c-.8.4-1.7.6-2.6.7.9-.6 1.7-1.4 2-2.5-.9.6-1.9.9-2.9 1.1-.8-.9-2-1.4-3.3-1.4-2.5 0-4.5 2-4.5 4.5 0 .4 0 .7.1 1-3.8-.2-7.1-2-9.4-4.8-.4.8-.7 1.6-.7 2.4 0 1.6.8 3 2 3.8-.7 0-1.4-.2-2.1-.6 0 2.2 1.6 4 3.6 4.5-.2.2-.6.2-1.1.2-.3 0-.6 0-.9-.1.7 1.8 2.3 3.1 4.3 3.2-1.5 1.2-3.5 1.9-5.6 1.9-.4 0-.7 0-1.1 0 2 1.3 4.4 2 7 2 8.4 0 12.9-6.9 12.9-12.9 0-.2 0-.4 0-.6.9-.7 1.6-1.4 2.3-2.4z" fill="#fff"/></svg>