<?xml version="1.0" encoding="utf-8"?>
<!-- Generator: Adobe Illustrator 25.2.1, SVG Export Plug-In . SVG Version: 6.00 Build 0)  -->
<svg version="1.1" id="Layer_1" xmlns="http://www.w3.org/2000/svg" xmlns:xlink="http://www.w3.org/1999/xlink" x="0px" y="0px"
	 viewBox="0 0 23 18" style="enable-background:new 0 0 23 18;" xml:space="preserve">
<style type="text/css">
	.st0{fill:#FFFFFF;}
</style>
<g>
	<path class="st0" d="M22.5,2.1c-0.8,0.4-1.7,0.6-2.6,0.7c0.9-0.6,1.7-1.4,2-2.5C21,0.9,20,1.2,19,1.4c-0.8-0.9-2-1.4-3.3-1.4
		c-2.5,0-4.5,2-4.5,4.5c0,0.4,0,0.7,0.1,1c-3.8-0.2-7.1-2-9.4-4.8C1.5,1.5,1.2,2.3,1.2,3.1c0,1.6,0.8,3,2,3.8
		c-0.7,0-1.4-0.2-2.1-0.6c0,0,0,0,0,0c0,2.2,1.6,4,3.6,4.5C4.5,11,4.1,11,3.6,11c-0.3,0-0.6,0-0.9-0.1C3.4,12.7,5,14,7,14.1
		C5.5,15.3,3.5,16,1.4,16C1,16,0.7,16,0.3,16c2,1.3,4.4,2,7,2c8.4,0,12.9-6.9,12.9-12.9c0-0.2,0-0.4,0-0.6
		C21.1,3.8,21.8,3.1,22.5,2.1z"/>
</g>
</svg>
