<svg fill="none" height="18" viewBox="0 0 26 18" width="26" xmlns="http://www.w3.org/2000/svg"><path d="m25.1787 2.81657c-.2962-1.10137-1.1646-1.969559-2.2658-2.266123-2.0118-.550447-10.059-.550447-10.059-.550447s-8.0469 0-10.05867.529578c-1.08003.29625-1.969559 1.185782-2.265809 2.286992-.529421 2.01161-.529421 6.18343-.529421 6.18343s0 4.1928.529421 6.1834c.296564 1.1012 1.164599 1.9694 2.265969 2.266 2.03279.5506 10.05881.5506 10.05881.5506s8.0469 0 10.0587-.5296c1.1014-.2964 1.9696-1.1646 2.2661-2.2658.5293-2.0118.5293-6.18342.5293-6.18342s.0212-4.193-.5296-6.20461zm-14.8868 10.03753v-7.70817l6.6916 3.85407z" fill="#fff"/></svg>