<svg enable-background="new 0 0 1366 129" viewBox="0 0 1366 129" xmlns="http://www.w3.org/2000/svg" xmlns:xlink="http://www.w3.org/1999/xlink"><linearGradient id="a" gradientUnits="userSpaceOnUse" x1="698.6085" x2="674.1085" y1="-48.323" y2="126.0377"><stop offset="0" stop-color="#2b7dc6"/><stop offset="1" stop-color="#5094de"/></linearGradient><linearGradient id="b" gradientUnits="userSpaceOnUse" x1="654.3603" x2="690.7216" y1="-59.3491" y2="139.3946"><stop offset="0" stop-color="#2970bb"/><stop offset="1" stop-color="#044c99"/></linearGradient><path d="m1131.2 68.5c91.4 14 141.9-37.5 234.4-37.5v98.5h-1365.9v-128.5c26.3 5.8 70.9-7.2 141.9 17.7 173.4 61 328.1 67.2 580.1 38.8 235-26.5 295.2-6.5 409.5 11z" fill="url(#a)" opacity=".8"/><path d="m318.7 45.8c-91.4 14-279.6-27.8-319-27.8v111.3h1366v-67.5c-89.5 0-95.2-66.8-206.5-32-146.1 47.2-204 52-454.5 0-239.4-49.6-271.8-1.5-386 16z" fill="url(#b)" opacity=".8"/><path d="m232.1 40.1c-91.4 10.9-193 13.7-232.4 13.7v75.2h1366v-88.9c-26.3 4.6-70.9 11-141.8 30.6-173.4 47.8-340.4 29.5-587.1-16.9-237.8-44.7-290.4-27.5-404.7-13.7z" fill="#063567"/></svg>