<?xml version="1.0" encoding="utf-8"?>
<!-- Generator: Adobe Illustrator 25.2.1, SVG Export Plug-In . SVG Version: 6.00 Build 0)  -->
<svg version="1.1" id="Layer_1" xmlns="http://www.w3.org/2000/svg" xmlns:xlink="http://www.w3.org/1999/xlink" x="0px" y="0px"
	 viewBox="0 0 1366 129" style="enable-background:new 0 0 1366 129;" xml:space="preserve">
<style type="text/css">
	.st0{opacity:0.8;fill:url(#SVGID_1_);enable-background:new    ;}
	.st1{opacity:0.8;fill:url(#SVGID_2_);enable-background:new    ;}
	.st2{fill:#063567;}
</style>
<linearGradient id="SVGID_1_" gradientUnits="userSpaceOnUse" x1="698.3386" y1="179.4122" x2="674.6812" y2="11.0466" gradientTransform="matrix(1 0 0 -1 0 130)">
	<stop  offset="0" style="stop-color:#2B7DC6"/>
	<stop  offset="1" style="stop-color:#5094DE"/>
</linearGradient>
<path class="st0" d="M1131.6,68c91.4,14,141.9-37.5,234.4-37.5V119H0V0.5c26.3,5.8,70.9-7.2,141.9,17.7
	C315.3,79.2,470,85.4,722.1,57C957.1,30.5,1017.3,50.5,1131.6,68z"/>
<linearGradient id="SVGID_2_" gradientUnits="userSpaceOnUse" x1="655.3375" y1="190.9475" x2="690.6922" y2="-2.2941" gradientTransform="matrix(1 0 0 -1 0 130)">
	<stop  offset="0" style="stop-color:#2970BB"/>
	<stop  offset="1" style="stop-color:#044C99"/>
</linearGradient>
<path class="st1" d="M319,45.5C227.6,59.5,39.4,17.7,0,17.7V119h1366V61.5c-89.5,0-95.2-66.8-206.5-32c-146.1,47.2-204,52-454.5,0
	C465.6-20.1,433.2,28,319,45.5z"/>
<path class="st2" d="M232.4,40.1C141,51,39.4,53.8,0,53.8V129h1366V40.1c-26.3,4.6-70.9,11-141.8,30.6
	c-173.4,47.8-340.4,29.5-587.1-16.9C399.3,9.1,346.7,26.3,232.4,40.1L232.4,40.1z"/>
</svg>
