<svg viewBox="0 0 1200 1536.14" xmlns="http://www.w3.org/2000/svg"><g fill="#fff"><path d="m724.5 1512.5c169.39-36.31 373.26-36.83 459.52-36.75a16 16 0 0 0 16-16v-1443.75a16 16 0 0 0 -16-16h-1168.02a16 16 0 0 0 -16 16v1435.06a16.27 16.27 0 0 0 13.73 15.85c435.49 69.46 501.66 90.42 710.77 45.59z"/><path d="m724.5 1512.5c169.39-36.31 373.26-36.83 459.52-36.75a16 16 0 0 0 16-16v-1443.75a16 16 0 0 0 -16-16h-1168.02a16 16 0 0 0 -16 16v1435.06a16.27 16.27 0 0 0 13.73 15.85c435.49 69.46 501.66 90.42 710.77 45.59z" fill-opacity=".5"/></g></svg>