<svg fill="none" height="20" viewBox="0 0 16 20" width="16" xmlns="http://www.w3.org/2000/svg"><path clip-rule="evenodd" d="m11.5 6h3.5v12c0 .5523-.4477 1-1 1h-12c-.55228 0-1-.4477-1-1v-16c0-.55228.44772-1 1-1h8v3.5c0 .82843.6716 1.5 1.5 1.5zm0-1h3.0858l-3.5858-3.58579v3.08579c0 .27614.2239.5.5.5zm4.1464-.35355c.1033.10321.1859.2232.2452.35355.0708.15553.1084.32583.1084.5v12.5c0 1.1046-.8954 2-2 2h-12c-1.104569 0-2-.8954-2-2v-16c0-1.104569.895431-2 2-2h8.5c.1742 0 .3445.0376425.5.108422.1304.05932.2503.141914.3536.245131zm-8.94667 10.13355c.39333.2.85.3 1.37.3.51333 0 .96333-.0966 1.35-.29.39333-.1933.69667-.4666.90997-.82.22-.3533.33-.76.33-1.22 0-.0266-.0133-.05-.04-.07-.02-.02-.0466-.03-.08-.03l-1.16997-.05c-.08 0-.12.0367-.12.11 0 .3467-.11.6267-.33.84-.21334.2134-.49667.32-.85.32-.36 0-.65-.1066-.87-.32-.21334-.2133-.32-.4933-.32-.84v-2.41c0-.35329.10666-.63662.32-.84996.22-.21333.51-.32.87-.32.35333 0 .63666.10667.85.32.22.21334.33.49667.33.84996 0 .0734.03333.11.1.11h.02l1.16997-.07c.08-.0133.12-.05.12-.11 0-.45996-.11-.86329-.33-1.20996-.2133-.35333-.51664-.62333-.90997-.81-.38667-.19333-.83667-.29-1.35-.29-.52 0-.97667.1-1.37.3-.39334.2-.69667.48334-.91.85-.21334.36667-.32.79-.32 1.26996v2.31c0 .48.10666.9034.32 1.27.21333.3667.51666.6534.91.86z" fill="#277b4b" fill-rule="evenodd"/></svg>