<svg fill="none" height="20" viewBox="0 0 16 20" width="16" xmlns="http://www.w3.org/2000/svg"><path clip-rule="evenodd" d="m11.5 6h3.5v12c0 .5523-.4477 1-1 1h-12c-.55228 0-1-.4477-1-1v-16c0-.55228.44772-1 1-1h8v3.5c0 .82843.6716 1.5 1.5 1.5zm0-1h3.0858l-3.5858-3.58579v3.08579c0 .27614.2239.5.5.5zm4.1464-.35355c.1033.10321.1859.2232.2452.35355.0708.15553.1084.32583.1084.5v12.5c0 1.1046-.8954 2-2 2h-12c-1.104569 0-2-.8954-2-2v-16c0-1.104569.895431-2 2-2h8.5c.1742 0 .3445.0376425.5.108422.1304.05932.2503.141914.3536.245131zm-9.8664 10.25355c.02.0667.06667.1.14.1h1.11c.07333 0 .11667-.0367.13-.11l.95-4.32c.00667-.0267.01667-.04.03-.04s.02333.0133.03.04l1.02 4.33c.02.0667.06333.1.13.1h1.19c.0733 0 .12-.0333.14-.1l1.64-6.77c.02-.08667-.0167-.13-.11-.13h-1.18c-.0667 0-.11.03667-.13.11l-.92 4.06c-.00667.0267-.01667.04-.03.04-.01333-.0067-.02333-.02-.03-.04l-1-4.07c-.02-.06667-.06667-.1-.14-.1h-1.21c-.06667 0-.11.03667-.13.11l-.92 4.06c-.00667.0267-.01667.04-.03.04s-.02333-.0133-.03-.04l-.95-4.07c-.02-.06667-.06333-.1-.13-.1h-1.24c-.07333 0-.11.03-.11.09l.01.04z" fill="#2970bb" fill-rule="evenodd"/></svg>