<svg fill="none" height="20" viewBox="0 0 16 20" width="16" xmlns="http://www.w3.org/2000/svg"><path clip-rule="evenodd" d="m15 6h-3.5c-.8284 0-1.5-.67157-1.5-1.5v-3.5h-8c-.55228 0-1 .44772-1 1v16c0 .5523.44772 1 1 1h.88676l6.57349-7.4129c.16362-.1845.36294-.332.58525-.433.2223-.1011.4628-.1536.706-.1541s.4838.051.7065.1511c.2227.1002.4227.2468.587.4306l2.955 4.6087zm1 11.75v-12.25c0-.17417-.0376-.34447-.1084-.5-.0593-.13035-.1419-.25034-.2452-.35355l-4.2928-4.292897c-.1033-.103217-.2232-.185811-.3536-.245131-.1555-.0707795-.3258-.108422-.5-.108422h-8.5c-1.104569 0-2 .895431-2 2v16c0 1.1046.895431 2 2 2h11.8462.1538c1.1046 0 2-.8954 2-2zm-2.1538 1.25c.3542 0 .5543-.089.6737-.1722.1278-.089.2293-.2184.3089-.3845.0717-.1498.1155-.3096.1411-.4473l-3.7147-5.7934c-.0619-.0587-.1321-.1057-.2073-.1395-.0937-.0421-.1938-.0633-.2944-.0631-.1005.0002-.2006.0219-.2941.0644-.0936.0425-.1794.1055-.251.1863l-5.9851 6.7493zm.7396-14h-3.0858c-.2761 0-.5-.22386-.5-.5v-3.08579zm-9.0858 2c-.82843 0-1.5.67157-1.5 1.5s.67157 1.5 1.5 1.5 1.5-.67157 1.5-1.5-.67157-1.5-1.5-1.5zm-2.5 1.5c0-1.38071 1.11929-2.5 2.5-2.5s2.5 1.11929 2.5 2.5-1.11929 2.5-2.5 2.5-2.5-1.11929-2.5-2.5z" fill="#53687d" fill-rule="evenodd"/></svg>