<svg fill="none" height="20" viewBox="0 0 16 20" width="16" xmlns="http://www.w3.org/2000/svg"><path clip-rule="evenodd" d="m11.5 6h3.5v12c0 .5523-.4477 1-1 1h-12c-.55228 0-1-.4477-1-1v-16c0-.55228.44772-1 1-1h8v3.5c0 .82843.6716 1.5 1.5 1.5zm0-1h3.0858l-3.5858-3.58579v3.08579c0 .27614.2239.5.5.5zm4.1464-.35355c.1033.10321.1859.2232.2452.35355.0708.15553.1084.32583.1084.5v12.5c0 1.1046-.8954 2-2 2h-12c-1.104569 0-2-.8954-2-2v-16c0-1.104569.895431-2 2-2h8.5c.1742 0 .3445.0376425.5.108422.1304.05932.2503.141914.3536.245131zm-9.6464 7.34835v-3.99038l.00068-.01186c.001-.01404.00325-.03737.00813-.06668.01016-.06098.02956-.13466.06337-.20227.03284-.06566.07425-.11613.12703-.15131.04966-.03309.13836-.0723.30099-.0723.16262 0 .2513.03921.30093.07229.05275.03516.09413.0856.12694.15125.0338.0676.05318.14127.06333.20225.00487.02931.00712.05263.00812.06668l.00068.01188v3.99565h1v-4.00005h-.08343c.08343-.00007.08343-.00021.08343-.00035l-.00001-.00052v-.00113l-.00001-.00254-.00008-.00624-.00042-.01696c-.00043-.01322-.00123-.0303-.00269-.05071-.00289-.04064-.00844-.09543-.01916-.15987-.02105-.12651-.06412-.30283-.15528-.48522-.09215-.18434-.23825-.38388-.46678-.53621-.23165-.15441-.51804-.2402-.85557-.2402-.33754 0-.62393.08579-.85559.24018-.22853.15232-.37465.35183-.46683.53617-.0912.18236-.13429.35868-.15537.48518-.01074.06444-.01629.11923-.01919.15987-.00146.02041-.00226.03749-.0027.05071l-.00043.01696-.00007.00624-.00002.00255v.00112.00053c0 .0002 0 .0004.25742.00044h-.25742v4.00005h.5c-.5 0-.5.0004-.5.0007v.0007l.00001.0015.00003.0035.00014.0087c.00014.0065.00038.0146.0008.024.00084.0188.00238.0434.00518.0728.00559.0587.01631.1379.037.231.04108.1848.12351.4335.29082.6845.35407.5311 1.02037.9726 2.16602.9726s1.81195-.4415 2.16602-.9726c.16731-.251.24974-.4997.29082-.6845.02069-.0931.03141-.1723.037-.231.0028-.0294.00434-.054.00518-.0728.00042-.0094.00066-.0175.0008-.024l.00014-.0087.00003-.0035.00001-.0015v-.0007c0-.0003 0-.0007-.5-.0007h.5v-4.00005h-1v3.99485c-.00014.0032-.00056.0108-.00165.0223-.00223.0233-.00713.0613-.01769.1088-.02142.0964-.06399.2227-.14668.3468-.14593.2189-.47963.5273-1.33398.5273s-1.18805-.3084-1.33398-.5273c-.08269-.1241-.12526-.2504-.14668-.3468-.01056-.0475-.01546-.0855-.01769-.1088-.00109-.0115-.00151-.0191-.00165-.0223z" fill="#53687d" fill-rule="evenodd"/></svg>