<svg fill="none" height="20" viewBox="0 0 16 20" width="16" xmlns="http://www.w3.org/2000/svg"><path clip-rule="evenodd" d="m11.5 6h3.5v12c0 .5523-.4477 1-1 1h-12c-.55228 0-1-.4477-1-1v-16c0-.55228.44772-1 1-1h5v2h1v-2h2v3.5c0 .82843.6716 1.5 1.5 1.5zm0-1h3.0858l-3.5858-3.58579v3.08579c0 .27614.2239.5.5.5zm4.1464-.35355c.1033.10321.1859.2232.2452.35355.0708.15553.1084.32583.1084.5v12.5c0 1.1046-.8954 2-2 2h-12c-1.104569 0-2-.8954-2-2v-16c0-1.104569.895431-2 2-2h8.5c.1742 0 .3445.0376425.5.108422.1304.05932.2503.141914.3536.245131zm-9.6464 5.35355h3v4h-3zm-1 0c0-.55228.44772-1 1-1h1v-2h1v2h1c.55228 0 1 .44772 1 1v4c0 .5523-.44772 1-1 1h-3c-.55228 0-1-.4477-1-1zm2-4v-2h1v2z" fill="#363e47" fill-rule="evenodd"/></svg>