<svg fill="none" height="20" viewBox="0 0 16 20" width="16" xmlns="http://www.w3.org/2000/svg"><path clip-rule="evenodd" d="m11.5 6h3.5v12c0 .5523-.4477 1-1 1h-12c-.55228 0-1-.4477-1-1v-16c0-.55228.44772-1 1-1h8v3.5c0 .82843.6716 1.5 1.5 1.5zm0-1h3.0858l-3.5858-3.58579v3.08579c0 .27614.2239.5.5.5zm4.1464-.35355c.1033.10321.1859.2232.2452.35355.0708.15553.1084.32583.1084.5v12.5c0 1.1046-.8954 2-2 2h-12c-1.104569 0-2-.8954-2-2v-16c0-1.104569.895431-2 2-2h8.5c.1742 0 .3445.0376425.5.108422.1304.05932.2503.141914.3536.245131zm-12.4992 11.76125c.10859.2457.30673.439.55267.539.23979.0822.50129.0689.73183-.0372.40125-.1681.80124-.5609 1.16968-1.0101.47957-.6097.90997-1.2578 1.28702-1.938.82336-.2482 1.66651-.4226 2.51979-.5211.33569.4501.72141.8593 1.14951 1.2193.352.2837.7596.5172 1.1772.5352.2275.0115.4528-.0505.6435-.1771.193-.1343.3472-.3186.4467-.5339.1148-.2323.183-.4762.1741-.7226-.0088-.2541-.1009-.48-.2523-.6649-.2852-.3465-.752-.5121-1.2113-.5968-.5568-.0877-1.1216-.1093-1.68326-.0641-.47461-.6825-.88844-1.4067-1.23655-2.164.31544-.84705.55014-1.64793.65613-2.3025.04416-.2798.06813-.54676.0593-.78805-.00883-.23359-.04921-.48002-.16025-.69051-.05986-.11862-.14492-.2222-.24903-.30323-.1041-.08103-.22463-.13747-.35284-.16523-.25488-.05519-.51733 0-.75959.09883-.47444.1938-.72553.60194-.82017 1.05629-.09211.43638-.05047.94463.05805 1.45802.12922.57011.31087 1.12659.54256 1.66208-.38751.9803-.83506 1.9349-1.34001 2.8583-.65022.2083-1.27701.4857-1.86997.8278-.46812.2811-.88199.6161-1.13182 1.0101-.26498.4184-.347.9164-.10095 1.4144zm1.71351-1.5954c.17539-.1052.3697-.2079.57916-.3054-.1774.268-.36687.5275-.5678.7778-.3533.4325-.62837.6622-.80124.7341-.01435.0062-.02911.0113-.04416.0154-.00757-.0103-.02019-.0282-.03281-.0565-.07066-.1424-.06813-.2772.05047-.4633.13375-.2105.40251-.4531.81638-.7021zm3.92289-2.2601c-.42791.065-.85306.1476-1.2744.2477v-.0013c.22261-.4432.43298-.8926.63089-1.3477.19907.3762.41377.7436.64351 1.1013zm1.8131.8265c.1889.2087.3727.3841.5477.5249.3028.2439.5136.3248.6284.3286.0307.0041.0619-.0027.0883-.0192.0525-.0422.0934-.0975.1186-.1605.0449-.0782.0704-.1662.0745-.2567-.0008-.0301-.0125-.0589-.0329-.0808-.0656-.0796-.2523-.1951-.6536-.2683-.2548-.0433-.5126-.0661-.771-.068zm-2.51149-4.50321c.1059-.34776.18997-.70201.25172-1.06061.03912-.24129.05426-.44023.04795-.59681.00035-.08639-.01329-.17225-.04038-.25413-.06312.00795-.12476.02525-.18296.05134-.10977.04492-.19936.13605-.24731.36322-.05047.24643-.03785.60195.05805 1.05501.03014.14181.06779.28998.11293.44198z" fill="#ee342e" fill-rule="evenodd"/></svg>