<svg fill="none" height="20" viewBox="0 0 16 20" width="16" xmlns="http://www.w3.org/2000/svg"><path clip-rule="evenodd" d="m11.5 6h3.5v12c0 .5523-.4477 1-1 1h-12c-.55228 0-1-.4477-1-1v-16c0-.55228.44772-1 1-1h8v3.5c0 .82843.6716 1.5 1.5 1.5zm0-1h3.0858l-3.5858-3.58579v3.08579c0 .27614.2239.5.5.5zm4.1464-.35355c.1033.10321.1859.2232.2452.35355.0708.15553.1084.32583.1084.5v12.5c0 1.1046-.8954 2-2 2h-12c-1.104569 0-2-.8954-2-2v-16c0-1.104569.895431-2 2-2h8.5c.1742 0 .3445.0376425.5.108422.1304.05932.2503.141914.3536.245131zm-10.33667 10.31355c.02.0267.05334.04.1.04h1.26c.06667 0 .11667-.0267.15-.08l1.31-2.28c.02-.04.04-.04.06 0l1.3 2.28c.03334.0533.08334.08.15.08h1.25997c.0734 0 .11-.0267.11-.08l-.02-.06-1.93997-3.33c-.00666-.02-.00666-.04 0-.06l1.93997-3.33c.0267-.04.03-.07333.01-.1s-.0533-.04-.1-.04h-1.25997c-.06666 0-.11666.02667-.15.08l-1.3 2.29c-.02.04-.04.04-.06 0l-1.3-2.29c-.03333-.05333-.08333-.08-.15-.08h-1.27c-.07333 0-.11.02667-.11.08l.02.06 1.94 3.33c.01334.02.01334.04 0 .06l-1.94 3.33c-.02666.04-.03.0733-.01.1z" fill="#50bd7e" fill-rule="evenodd"/></svg>