<svg fill="none" height="440" viewBox="0 0 541 440" width="541" xmlns="http://www.w3.org/2000/svg" xmlns:xlink="http://www.w3.org/1999/xlink"><filter id="a" color-interpolation-filters="sRGB" filterUnits="userSpaceOnUse" height="50" width="130" x="10.4917" y="338"><feFlood flood-opacity="0" result="BackgroundImageFix"/><feColorMatrix in="SourceAlpha" type="matrix" values="0 0 0 0 0 0 0 0 0 0 0 0 0 0 0 0 0 0 127 0"/><feMorphology in="SourceAlpha" operator="dilate" radius="1" result="effect1_dropShadow"/><feOffset dy="1"/><feGaussianBlur stdDeviation="2"/><feColorMatrix type="matrix" values="0 0 0 0 0 0 0 0 0 0 0 0 0 0 0 0 0 0 0.1 0"/><feBlend in2="BackgroundImageFix" mode="normal" result="effect1_dropShadow"/><feBlend in="SourceGraphic" in2="effect1_dropShadow" mode="normal" result="shape"/></filter><filter id="b" color-interpolation-filters="sRGB" filterUnits="userSpaceOnUse" height="36" width="36" x="10.4917" y="16.9292"><feFlood flood-opacity="0" result="BackgroundImageFix"/><feColorMatrix in="SourceAlpha" type="matrix" values="0 0 0 0 0 0 0 0 0 0 0 0 0 0 0 0 0 0 127 0"/><feMorphology in="SourceAlpha" operator="dilate" radius="1" result="effect1_dropShadow"/><feOffset dy="1"/><feGaussianBlur stdDeviation="2"/><feColorMatrix type="matrix" values="0 0 0 0 0 0 0 0 0 0 0 0 0 0 0 0 0 0 0.1 0"/><feBlend in2="BackgroundImageFix" mode="normal" result="effect1_dropShadow"/><feBlend in="SourceGraphic" in2="effect1_dropShadow" mode="normal" result="shape"/></filter><filter id="c" color-interpolation-filters="sRGB" filterUnits="userSpaceOnUse" height="36" width="36" x="10.4917" y="41.9292"><feFlood flood-opacity="0" result="BackgroundImageFix"/><feColorMatrix in="SourceAlpha" type="matrix" values="0 0 0 0 0 0 0 0 0 0 0 0 0 0 0 0 0 0 127 0"/><feMorphology in="SourceAlpha" operator="dilate" radius="1" result="effect1_dropShadow"/><feOffset dy="1"/><feGaussianBlur stdDeviation="2"/><feColorMatrix type="matrix" values="0 0 0 0 0 0 0 0 0 0 0 0 0 0 0 0 0 0 0.1 0"/><feBlend in2="BackgroundImageFix" mode="normal" result="effect1_dropShadow"/><feBlend in="SourceGraphic" in2="effect1_dropShadow" mode="normal" result="shape"/></filter><filter id="d" color-interpolation-filters="sRGB" filterUnits="userSpaceOnUse" height="36" width="36" x="10.4917" y="76.9292"><feFlood flood-opacity="0" result="BackgroundImageFix"/><feColorMatrix in="SourceAlpha" type="matrix" values="0 0 0 0 0 0 0 0 0 0 0 0 0 0 0 0 0 0 127 0"/><feMorphology in="SourceAlpha" operator="dilate" radius="1" result="effect1_dropShadow"/><feOffset dy="1"/><feGaussianBlur stdDeviation="2"/><feColorMatrix type="matrix" values="0 0 0 0 0 0 0 0 0 0 0 0 0 0 0 0 0 0 0.1 0"/><feBlend in2="BackgroundImageFix" mode="normal" result="effect1_dropShadow"/><feBlend in="SourceGraphic" in2="effect1_dropShadow" mode="normal" result="shape"/></filter><filter id="e" color-interpolation-filters="sRGB" filterUnits="userSpaceOnUse" height="36" width="36" x="10.4917" y="110.929"><feFlood flood-opacity="0" result="BackgroundImageFix"/><feColorMatrix in="SourceAlpha" type="matrix" values="0 0 0 0 0 0 0 0 0 0 0 0 0 0 0 0 0 0 127 0"/><feMorphology in="SourceAlpha" operator="dilate" radius="1" result="effect1_dropShadow"/><feOffset dy="1"/><feGaussianBlur stdDeviation="2"/><feColorMatrix type="matrix" values="0 0 0 0 0 0 0 0 0 0 0 0 0 0 0 0 0 0 0.1 0"/><feBlend in2="BackgroundImageFix" mode="normal" result="effect1_dropShadow"/><feBlend in="SourceGraphic" in2="effect1_dropShadow" mode="normal" result="shape"/></filter><filter id="f" color-interpolation-filters="sRGB" filterUnits="userSpaceOnUse" height="36" width="36" x="10.4917" y="144.929"><feFlood flood-opacity="0" result="BackgroundImageFix"/><feColorMatrix in="SourceAlpha" type="matrix" values="0 0 0 0 0 0 0 0 0 0 0 0 0 0 0 0 0 0 127 0"/><feMorphology in="SourceAlpha" operator="dilate" radius="1" result="effect1_dropShadow"/><feOffset dy="1"/><feGaussianBlur stdDeviation="2"/><feColorMatrix type="matrix" values="0 0 0 0 0 0 0 0 0 0 0 0 0 0 0 0 0 0 0.1 0"/><feBlend in2="BackgroundImageFix" mode="normal" result="effect1_dropShadow"/><feBlend in="SourceGraphic" in2="effect1_dropShadow" mode="normal" result="shape"/></filter><filter id="g" color-interpolation-filters="sRGB" filterUnits="userSpaceOnUse" height="66" width="66" x="339.492" y="95.9292"><feFlood flood-opacity="0" result="BackgroundImageFix"/><feColorMatrix in="SourceAlpha" type="matrix" values="0 0 0 0 0 0 0 0 0 0 0 0 0 0 0 0 0 0 127 0"/><feOffset dy="1"/><feGaussianBlur stdDeviation="4"/><feColorMatrix type="matrix" values="0 0 0 0 0 0 0 0 0 0 0 0 0 0 0 0 0 0 0.2 0"/><feBlend in2="BackgroundImageFix" mode="normal" result="effect1_dropShadow"/><feBlend in="SourceGraphic" in2="effect1_dropShadow" mode="normal" result="shape"/></filter><filter id="h" color-interpolation-filters="sRGB" filterUnits="userSpaceOnUse" height="67" width="66" x="339.492" y="154.929"><feFlood flood-opacity="0" result="BackgroundImageFix"/><feColorMatrix in="SourceAlpha" type="matrix" values="0 0 0 0 0 0 0 0 0 0 0 0 0 0 0 0 0 0 127 0"/><feOffset dy="1"/><feGaussianBlur stdDeviation="4"/><feColorMatrix type="matrix" values="0 0 0 0 0 0 0 0 0 0 0 0 0 0 0 0 0 0 0.2 0"/><feBlend in2="BackgroundImageFix" mode="normal" result="effect1_dropShadow"/><feBlend in="SourceGraphic" in2="effect1_dropShadow" mode="normal" result="shape"/></filter><filter id="i" color-interpolation-filters="sRGB" filterUnits="userSpaceOnUse" height="66" width="66" x="401.492" y="95.9292"><feFlood flood-opacity="0" result="BackgroundImageFix"/><feColorMatrix in="SourceAlpha" type="matrix" values="0 0 0 0 0 0 0 0 0 0 0 0 0 0 0 0 0 0 127 0"/><feOffset dy="1"/><feGaussianBlur stdDeviation="4"/><feColorMatrix type="matrix" values="0 0 0 0 0 0 0 0 0 0 0 0 0 0 0 0 0 0 0.2 0"/><feBlend in2="BackgroundImageFix" mode="normal" result="effect1_dropShadow"/><feBlend in="SourceGraphic" in2="effect1_dropShadow" mode="normal" result="shape"/></filter><filter id="j" color-interpolation-filters="sRGB" filterUnits="userSpaceOnUse" height="67" width="66" x="401.492" y="154.929"><feFlood flood-opacity="0" result="BackgroundImageFix"/><feColorMatrix in="SourceAlpha" type="matrix" values="0 0 0 0 0 0 0 0 0 0 0 0 0 0 0 0 0 0 127 0"/><feOffset dy="1"/><feGaussianBlur stdDeviation="4"/><feColorMatrix type="matrix" values="0 0 0 0 0 0 0 0 0 0 0 0 0 0 0 0 0 0 0.2 0"/><feBlend in2="BackgroundImageFix" mode="normal" result="effect1_dropShadow"/><feBlend in="SourceGraphic" in2="effect1_dropShadow" mode="normal" result="shape"/></filter><filter id="k" color-interpolation-filters="sRGB" filterUnits="userSpaceOnUse" height="66" width="66" x="463.492" y="95.9292"><feFlood flood-opacity="0" result="BackgroundImageFix"/><feColorMatrix in="SourceAlpha" type="matrix" values="0 0 0 0 0 0 0 0 0 0 0 0 0 0 0 0 0 0 127 0"/><feOffset dy="1"/><feGaussianBlur stdDeviation="4"/><feColorMatrix type="matrix" values="0 0 0 0 0 0 0 0 0 0 0 0 0 0 0 0 0 0 0.2 0"/><feBlend in2="BackgroundImageFix" mode="normal" result="effect1_dropShadow"/><feBlend in="SourceGraphic" in2="effect1_dropShadow" mode="normal" result="shape"/></filter><filter id="l" color-interpolation-filters="sRGB" filterUnits="userSpaceOnUse" height="67" width="66" x="463.492" y="154.929"><feFlood flood-opacity="0" result="BackgroundImageFix"/><feColorMatrix in="SourceAlpha" type="matrix" values="0 0 0 0 0 0 0 0 0 0 0 0 0 0 0 0 0 0 127 0"/><feOffset dy="1"/><feGaussianBlur stdDeviation="4"/><feColorMatrix type="matrix" values="0 0 0 0 0 0 0 0 0 0 0 0 0 0 0 0 0 0 0.2 0"/><feBlend in2="BackgroundImageFix" mode="normal" result="effect1_dropShadow"/><feBlend in="SourceGraphic" in2="effect1_dropShadow" mode="normal" result="shape"/></filter><mask id="m" height="440" maskUnits="userSpaceOnUse" width="326" x="0" y="0"><path d="m325.492 427.596v-427.596l-309.0003.00001754c-8.83656.0000003-16.000001 7.16347246-16.000001 15.99998246l.000005 365.249c0 6.983 4.639246 13.2 11.308596 15.268 179.4797 55.662 230.1637 47.966 313.6917 31.079z" fill="#c2e1ff"/></mask><path d="m343.411 423.965c67.195-13.536 140.92-18.269 181.107-19.288 8.834-.224 15.974-7.389 15.974-16.226v-372.451c0-8.83655-7.164-15.99999976-16-15.99999946l-508.0003.000017c-8.83656.0000003-16.000001 7.16347246-16.000001 15.99998246l.000005 365.249c0 6.983 4.639246 13.2 11.308596 15.268 191.9347 59.525 236.5787 46.592 331.6107 27.448z" fill="#fff"/><path d="m325.492 427.596v-427.596l-309.0003.00001754c-8.83656.0000003-16.000001 7.16347246-16.000001 15.99998246l.000005 365.249c0 6.983 4.639246 13.2 11.308596 15.268 179.4797 55.662 230.1637 47.966 313.6917 31.079z" fill="#f3f1fd"/><g mask="url(#m)"><path clip-rule="evenodd" d="m-77.8535 33.8101c-2.595 1.039-3.929 1.24-10.281 1.55-4.163.204-5.306 1.712-4.308 5.687.412 1.643 1.326 2.498 2.667 2.498 1.122 0 1.786.411 1.476.912-1.175 1.901-6.041-.516-7.014-3.484-.528-1.61-1.051-3.076-1.163-3.258-.315-.51-5.6615 3.011-7.7145 5.081-1.011 1.019-1.593 2.49-1.294 3.269s.113 1.682-.413 2.007c-1.642 1.015-1.045 3.473.844 3.473 1.837 0 4.2 1.783 4.2 3.169 0 .422-.72.492-1.601.154-.88-.338-1.893-.211-2.25.281-.357.493-2.09 1.411-3.851 2.041-2.536.907-3.577.861-5-.218-.989-.75-2.36-1.378-3.048-1.395-1.566-.04-1.656 2.666-.107 3.182.858.286.858.915 0 2.518-.628 1.175-1.143 2.584-1.143 3.131 0 1.298 9.644 3.429 13.5 2.984 4.6055-.533 3.909-3.273-.933-3.668-4.044-.331-9.414-3.051-6.54-3.313 3.519-.321 10.561.408 11.525 1.194 1.4445 1.176 5.4485.005 5.4485-1.594 0-.715 2.009-2.068 4.465-3.006s5.141-2.736 5.966-3.996c.826-1.259 2.823-2.58 4.437-2.935 1.615-.355 4.651-1.519 6.746-2.587 4.664-2.378 7.86-2.663 4.65-.415-1.345.943-1.949 2.13-1.576 3.101.827 2.155-1.4 3.338-6.316 3.357-4.981.018-7.378 2.174-5.594 5.031.961 1.538.844 1.907-.686 2.169-1.464.25-1.67.777-1 2.565.653 1.742 1.631 2.25 4.329 2.25 1.917 0 4.631.522 6.032 1.161 2.268 1.033 2.547 1.747 2.547 6.513 0 2.944-.529 6.2-1.176 7.235-.946 1.516-.849 2.209.5 3.558 2.035 2.035 2.155 2.931.298 2.218-1.579-.606-3.622 1.094-3.622 3.015 0 1.663 3.67 1.706 4.338.05.31-.769.535-.598.583.443.043.932-1.258 2.484-2.892 3.449-3.101 1.832-5.142 5.9271-4.505 9.0399.204 1 .652 3.981.994 6.625.518 4.009 1.15 5.129 3.802 6.746 1.749 1.067 3.902 1.941 4.785 1.943s3.52-2.726 5.861-6.063c4.583-6.533 5.333-6.993 22.034-13.5079 14.665-5.722 14.467-5.61 12.527-7.029-.963-.704-1.235-1.458-.656-1.816.545-.337 1.273-.155 1.619.404 1.564 2.53 3.25.882 3.146-3.075-.074-2.821.432-4.486 1.629-5.36.954-.698 1.735-1.745 1.735-2.326s.525-1.231 1.167-1.445 1.204-2.055 1.25-4.091c.061-2.72.45-3.562 1.467-3.175 1.073.409 1.259-.243.828-2.897-.447-2.754.104-4.449 2.811-8.65 1.851-2.874 4.36798-5.729 5.59298-6.345 3.57102-1.796 3.31302-3.351-.63199-3.812-1.983-.231-3.82999-.058-4.10399.386-.937 1.517-3.338.86-2.722-.745.478-1.247.08-1.421-2.032-.891-1.652.414-2.626.248-2.626-.45 0-.609 1.098-1.108 2.441-1.108 5.527 0 3.218-4.916-2.382-5.07-2.264-.062-2.331-.16-.581-.843 1.902-.744 1.889-.82-.361-2.024-4.789-2.563-21.117 1.563-21.117 5.336 0 1.779-.124 1.798-1.806.276-1.654-1.496-1.941-1.5-3.403-.038-1.461 1.462-1.687 1.426-2.679-.427-.894-1.671-1.772-1.931-5.036-1.493-3.609.484-3.907.351-3.416-1.523 1.106-4.232-14.044-8.58-20.66-5.929zm197.3535 4.255c-1.561 4.068 4.628 8.426 12.018 8.465 2.752.014 2.809-.08 1.393-2.235-.812-1.237-2.806-2.7-4.428-3.25s-4.169-1.803-5.661-2.785c-2.439-1.605-2.773-1.625-3.322-.195zm-180.3335 5.956c-1.428 1.72-5.516 2.135-4.477.454.723-1.169 4.718-2.915 5.35-2.338.215.198-.177 1.046-.873 1.884zm-58.5075.483c-.361 1.139-1.075 1.812-1.585 1.497-.51-.316-.928-.097-.928.485s.45 1.059 1 1.059 1 .708 1 1.573c0 2.035 2.935 1.484 4.388-.823.784-1.246.795-2.237.035-3.44-1.596-2.532-3.173-2.673-3.91-.351zm315.679-1.246c-2.816.538-2.397 2.299 1.002 4.216 2.236 1.261 2.961 1.226 6.17-.297 2-.949 3.636-2.107 3.636-2.572 0-1.842-4.972-2.462-10.808-1.347zm14.308.287c.34.55 1.267 1 2.06 1s1.44-.45 1.44-1-.927-1-2.059-1-1.781.45-1.441 1zm-342 1c-.34.55-1.674 1-2.965 1-1.855 0-2.238.419-1.825 2 .288 1.1 1.091 2 1.784 2 1.606 0 3.7-2.473 2.831-3.342-.362-.362.568-.658 2.067-.658 1.563 0 2.462-.427 2.108-1-.34-.55-1.24-1-2-1s-1.66.45-2 1zm267.515.642c.01 1.022.42 2.497.915 3.279.763 1.206 1.307 1.154 3.592-.343 2.945-1.93 2.453-3.072-1.772-4.116-2.26-.558-2.746-.348-2.735 1.18zm-287.015 3.371c-3.498 1.404-4.11 1.961-2.75 2.503.963.384 1.75 1.394 1.75 2.244 0 1.14.527.938 2.006-.767 1.104-1.273 2.299-2.021 2.657-1.663.358.357-.568 1.78-2.058 3.16-1.977 1.833-2.278 2.51-1.113 2.51.965 0 1.48.692 1.302 1.75-.255 1.517.439 1.713 5.206 1.473 7.664-.386 10-1.026 10-2.742 0-.815-.48-1.481-1.067-1.481-.644 0-.795-.893-.382-2.25.648-2.125.524-2.097-2.237.5-3.507 3.299-4.314 3.421-4.314.656 0-1.271-.807-2.304-2.054-2.63-2.023-.529-2.02-.555.171-1.657 1.224-.615 2.411-1.681 2.637-2.369.594-1.799-4.33-1.414-9.754.763zm37.179.271c-1.575 1.898-.766 5.162 1.384 5.581 1.62.316 1.692.147.533-1.25-.884-1.064-.958-1.615-.218-1.615.617 0 1.122-.9 1.122-2 0-2.282-1.256-2.601-2.821-.716zm257.821 2.546c0 1.128.445 2.327.99 2.664.58.358.199 1.461-.924 2.665-1.052 1.13-2.342 1.788-2.867 1.464-1.062-.657-10.199 5.948-10.199 7.373 0 .498.788 1.369 1.75 1.936 1.526.9 1.558 1.16.25 2.034-.825.552-2.32 1.01-3.323 1.019-2.54.021-1.766 3.251 1.079 4.502 3.115 1.37 2.831 2.687-.321 1.488-3.246-1.234-5.727-1.256-4.978-.044 1.138 1.841-1.786 2.34-3.109.531-1.234-1.689-1.348-1.575-1.348 1.347 0 1.755.438 3.191.974 3.191s1.673 1.35 2.526 3 2.194 3 2.98 3c1.558 0 3.157 6.161 2.06 7.935-1.44 2.329-3.193 1.058-2.745-1.991.309-2.101-.165-3.742-1.514-5.25-1.079-1.207-3.473-4.576-5.319-7.488-2.51-3.959-3.872-5.219-5.409-5-4.152.594-2.314 11.174 2.242 12.906 4.395 1.671 1.592 2.054-3.938.537-2.946-.808-6.932-1.739-8.857-2.069l-3.5-.6 3 2.474 3 2.474-2.816.036c-1.548.02-3.743.532-4.8765 1.139-1.446.774-2.257.787-2.717.042-.736-1.189-9.09 3.325-9.09 4.912 0 .519-.695.943-1.544.943-.915 0-1.424-.712-1.25-1.75.196-1.168-.454-1.856-1.956-2.07-2.555-.362-2.604-.241-1.299 3.192.824 2.1679.658 2.5429-1.25 2.8149-1.21.172-2.651 1.345-3.201 2.606-.753 1.728-1.556 2.155-3.25 1.731-2.345-.586-3.183.933-1 1.814.827.333.722.531-.309.583-1.964.1-4.477-1.889-5.27-4.171-.525-1.51.058-1.75 4.253-1.75 4.442 0 6.076-.967 6.076-3.5939 0-1.091-11.291-5.258-16.001-5.906-3.575-.492-4.815-1.002-3.878-1.596 1.065-.675.924-.909-.621-1.031-1.1-.087-3.561-.283-5.47-.437-1.908-.154-5.058.432-7 1.302-1.941.87-3.853 1.622-4.248 1.672-.394.049-1.744.969-3 2.044-1.255 1.075-2.395 1.863-2.532 1.75-.137-.112-.587-.197-1-.189-.413.009-.188.372.498.808.937.595.625 1.639-1.25 4.1789-1.374 1.863-2.498 3.934-2.498 4.603 0 1.136-1.082 2.125-9.01 8.243-2.706 2.088-2.973 2.754-2.405 6 .866 4.96 3.042 6.627 6.064 4.647 3.307-2.168 4.064-1.901 5.962 2.098 1.447 3.049 1.492 3.727.297 4.474-1.049.656-1.489.251-1.724-1.593-.329-2.567-2.534-3.335-3.781-1.317-.393.637-.66 2.629-.592 4.428.104 2.786-.28 3.36-2.594 3.876-1.494.333-4.819 2.57-7.388 4.971-3.281 3.067-5.88401 4.57-8.75001 5.055-4.66598.788-5.02002 1.621-1.78201 4.19 3.37201 2.676 3.92899 4.032 2.64499 6.431-1.01099 1.89-1.77399 2.089-6.29599 1.643-7.21399-.71-9.104.182-9.203 4.346-.04502 1.871-.39701 4.091-.784 4.932-.38699.84-.05398 2.415.73801 3.5 1.17801 1.61 2.62698 1.971 7.91699 1.971 6.92099 0 10.68602-1.968 10.68602-5.587 0-.977 1.35-2.738 3-3.913s3-2.781 3-3.568c0-.966 1.123-1.432 3.453-1.432 1.899 0 4.627-.535 6.062-1.189 2.328-1.061 2.844-.909 4.797 1.415 1.203 1.431 3.539 3.27 5.19 4.086 1.652.816 3.801 2.365 4.776 3.442 2.05 2.266.949 3.767-3.278 4.47l-2.5.415 2.643.762c3.055.881 6.857-1.682 6.857-4.623 0-.978.563-1.793 1.25-1.811 1.579-.042-3.045-3.967-4.674-3.967-1.478 0-7.138-5.771-6.392-6.518.657-.656 3.986.746 9.316 3.924 2.565 1.53 4.897 4.101 6.5 7.167 3.161 6.047 5.336 7.52 7.664 5.191 1.58-1.58 1.584-1.832.059-3.517-1.533-1.695-1.5-1.905.506-3.158 1.903-1.189 2.355-1.087 3.96.896.996 1.23 1.811 2.851 1.811 3.603 0 2.987 4.449 4.466 12.592 4.184 8.921-.308 9.638.348 7.076 6.481-1.376 3.294-1.719 3.474-7.613 4.008-4.16.377-8.549-.007-13.465-1.178-8.14-1.939-11.59-1.358-11.59 1.952 0 2.341-1.881 2.116-7.5-.897-1.65-.885-5.025-2.071-7.5-2.636-3.416-.779-4.525-1.505-4.602-3.014-.318-6.205.417-5.803-9.653-5.276-6.072.317-10.43 1.091-12.66903 2.249-2.44198 1.262-4.63397 1.597-7.70498 1.176-3.44501-.472-4.54599-.229-5.581 1.229-.70999.999-2.31903 2.362-3.57602 3.03-1.28299.681-2.54897 2.529-2.88597 4.214-.33 1.651-1.709 3.764-3.063 4.696-4.92 3.384-10.265 8.458-12.188 11.569-1.567 2.536-1.796 3.937-1.128 6.9.634 2.808.422 4.537-.866 7.062-2.456 4.818-1.371 6.751 10.652 18.974 4.162 4.23 8.44199 5.755 12.78799 4.555 1.98401-.548 4.815984-.736 6.292-.418 1.47699.318 4.147.123 5.93499-.435 1.788-.557 4.60802-1.434 6.26802-1.948 2.558-.793 3.419-.565 5.646 1.5 1.813 1.679 3.791 2.435 6.375 2.435 4.594 0 5.36 1.532 3.821 7.641-1.108 4.402-1.059 4.573 2.345 8.178 4.145 4.388 6.383 9.057 7.288 15.204.559 3.795.339 4.819-1.369 6.365-1.12 1.013-2.314 3.703-2.653 5.977-.497 3.328-.114 5.033 1.959 8.738 1.417 2.532 3.477 8.123 4.577 12.426 1.101 4.302 2.657 8.547 3.459 9.433 2.19 2.421 4.534 8.591 4.534 11.938 0 3.88 1.561 4.294 11.791 3.125 9.652-1.102 12.011-2.472 19.259-11.18 3.422-4.113 4.95-6.842 4.95-8.842 0-2.167.69-3.228 2.75-4.226 2.468-1.194 2.75-1.856 2.75-6.444 0-5.864 1.409-7.918 8.137-11.86 2.6325-1.544 4.5865-3.518 4.9625-5.016.787-3.131-.338-9.244-2.183-11.878-1.597-2.28-1.896-9.815-.494-12.435 1.37-2.559 6.896-8.177 12.773-12.988 5.224-4.275 11.304-14.189 11.304-18.432 0-1.631-.459-1.845-2.75-1.288-12.558 3.055-16.25 2.831-16.25-.987 0-.718-2.25-2.764-5-4.546-2.7495-1.782-4.9995-3.769-4.9995-4.416 0-.648-.937-2.025-2.083-3.062-1.145-1.036-2.726-3.244-3.513-4.905-.786-1.661-3.169-5.495-5.295-8.52-2.582-3.673-3.491-5.737-2.737-6.214 1.536-.972 11.114 8.992 11.98 12.464.377 1.512 1.15 2.75 1.718 2.75 1.989 0 7.7805 7.394 8.4075 10.733.348 1.855 1.353 3.648 2.231 3.986 4.411 1.692 27.417-8.684 29.83-13.452.572-1.13 1.646-2.785 2.388-3.679 1.145-1.379 1.09-1.912-.363-3.517-.941-1.04-2.772-2.158-4.071-2.483-1.298-.326-2.655-1.523-3.016-2.659-.571-1.799-.805-1.87-1.816-.543-.639.838-2.409 1.987-3.934 2.553-2.314.859-3.055.701-4.473-.955-.934-1.091-2.055-1.984-2.49-1.984-.95 0-6.693-6.182-6.735-7.25-.059-1.523 3.95-.688 5.696 1.185 2.205 2.365 6.462 4.065 10.186 4.065 1.53 0 4.25.733 6.045 1.628 2.271 1.133 5.703 1.596 11.283 1.524 8.457-.109 11.881 1.234 15.954 6.259 1.063 1.311 2.855 2.089 4.816 2.089 2.829 0 3.331.499 5.307 5.285 2.013 4.87 7.039 12.638 12.35 19.085l2.166 2.63 2.58-2.42c2.308-2.166 2.522-2.962 2.032-7.557l-.547-5.135 5.457-5.162c3.003-2.839 5.641-5.707 5.862-6.373.222-.667 2.346-1.694 4.72-2.283 4.285-1.062 4.351-1.038 9.108 3.43 2.635 2.475 4.956 5.4 5.159 6.5.253 1.37.988 1.881 2.333 1.623 1.081-.208 2.639-.433 3.464-.5 1.872-.153 7 9.713 7 13.467 0 1.789 1.004 3.577 2.907 5.178 1.598 1.345 3.841 4.278 4.983 6.516 1.143 2.239 2.984 4.359 4.093 4.711s2.017 1.028 2.017 1.502c0 .937-8.035-3.239-11.885-6.177-2.39-1.824-6.12-2.478-6.107-1.07.004.413 1.587 1.827 3.521 3.144 1.933 1.316 5.768 5.261 8.523 8.767 4.636 5.899 12.76 12.275 15.698 12.32.688.01 1.25.425 1.25.921s1.344 1.371 2.987 1.944c3.951 1.377 18.953 3.549 19.656 2.845.88-.88-8.575-4.836-10.971-4.591-1.194.122-4.295-.124-6.888-.547-5.108-.834-6.346-2.464-5.235-6.893.547-2.178.269-2.553-2.109-2.835-1.505-.179-3.234-1.215-3.839-2.302-.606-1.087-1.776-2.535-2.601-3.218-1.314-1.087-1.283-1.245.25-1.273 2.109-.039 2.265-1.36.349-2.951-.771-.639-1.671-2.232-1.999-3.539s-2.124-3.321-3.991-4.475-4.583-3.656-6.036-5.561c-2.135-2.798-2.49-4.027-1.857-6.405l.784-2.943 5 3.33c2.75 1.832 5.687 4.018 6.526 4.859 1.369 1.373 1.929 1.192 5.443-1.759l3.916-3.289-1.455-3.824c-.943-2.476-3.037-4.938-5.943-6.983-4.794-3.376-5.906-5.678-3.906-8.088 1.929-2.325 5.47-1.378 5.175 1.383-.278 2.59 2.272 4.085 4.007 2.35.839-.839.661-1.472-.69-2.461-1.693-1.238-1.563-1.484 1.86-3.504 2.025-1.194 4.315-2.172 5.089-2.172.775 0 2.969-1.37 4.877-3.045 2.92-2.564 3.58-3.94 4.175-8.704.489-3.912.356-5.775-.433-6.037-.628-.21-1.141-1.099-1.141-1.977 0-.879-2.031-3.489-4.513-5.8-3.068-2.857-4.315-4.721-3.893-5.82.341-.889 1.247-1.617 2.013-1.617s1.393-.398 1.393-.883c0-1.352-4.242-2.16-5.568-1.06-.792.658-1.917.371-3.468-.885-2.283-1.849-2.284-1.871-.378-4.484 2.359-3.234 3.997-3.391 4.765-.455.462 1.769.839 1.977 1.816 1 1.851-1.851 4.627-1.486 5.833.767.589 1.1 1.701 2 2.471 2 .771 0 2.413 1.8 3.649 4 2.385 4.243 4.764 5.05 6.988 2.37 1.183-1.425.768-2.159-3.303-5.845-4.42-4.001-4.628-4.426-4.101-8.355.59-4.401 1.595-5.732 4.771-6.321 2.912-.541 4.494-4.562 4.51-11.464.011-4.617-.475-6.738-1.985-8.658-1.099-1.398-2-3.034-2-3.635 0-2.674 2.197-.542 6.599 6.408 2.612 4.125 5.047 7.5 5.409 7.5 1.906 0 1.679-1.561-.524-3.603-1.366-1.266-2.484-3.313-2.484-4.548 0-1.236-1.32-3.62-2.932-5.298s-4.3-4.626-5.971-6.551c-2.39-2.753-3.045-3.104-3.068-1.643-.021 1.388-.471 1.665-1.779 1.095-.961-.419-3.987-.926-6.719-1.127-2.734-.201-5.259-.694-5.612-1.095-.354-.402-.175-3.967.396-7.923l1.039-7.192 4.823-1.1569c2.654-.637 4.823-1.563 4.823-2.058s1.125-.9 2.5-.9 2.5.48 2.5 1.067c0 .646.89.794 2.25.376 3.058-.94 3.308-1.285 1.933-2.66-.651-.65-1.183-2.62-1.183-4.376 0-3.763 2.456-5.21 4.974-2.931.927.838 1.933 1.524 2.238 1.524 1.01 0 1.617-3.987.694-4.558-.497-.308-.892-1.096-.874-1.751.017-.655.97.068 2.117 1.606 1.666 2.234 2.161 4.618 2.458 11.85.414 10.1109.559 10.3739 11.125 20.2359l5.231 4.884-.281-7.041c-.156-3.872-.818-7.686-1.474-8.475-.655-.789-.909-1.717-.564-2.062.812-.811-3.767-5.6489-5.368-5.6719-.674-.009-1.953-1.428-2.846-3.153-1.593-3.08-1.571-3.178 1.224-5.49 1.843-1.525 3.64-2.175 5.096-1.845 2.01.455 2.25.126 2.25-3.076 0-4.27 1.51-7.453 3.535-7.453 2.705 0 1.499-1.48-3.491-4.283-3.448-1.936-4.78-3.241-4.379-4.287.318-.828-.189-2.352-1.126-3.388-1.608-1.777-1.602-1.937.128-2.843 1.008-.528 3.295-.737 5.083-.466 3.698.562 4.158-.601 1.274-3.212-1.087-.983-1.755-2.147-1.484-2.586.722-1.168-3.624-3.935-6.178-3.935-1.207 0-2.344.418-2.529.93-.195.548-4.651.281-10.848-.649-6.457-.97-12.341-1.305-15.25-.869-4.885.733-6.25 2.379-2.735 3.298 2.206.577 2.747 2.29.724 2.29-.703 0-2.328-.735-3.61-1.633-1.283-.898-2.619-1.236-2.973-.75-.352.486-2.855 1.677-5.56 2.648-4.847 1.739-4.953 1.734-7.184-.361-1.88-1.767-2.993-2.015-6.579-1.466-6.428.984-10.769.825-13.999-.513-2.945-1.22-13.583-.807-15.887.617-.851.527-.542 1.243 1.058 2.451l2.262 1.706-4.677 1.178c-2.573.648-5.153.884-5.733.525-.685-.423-.819.095-.381 1.473 1.028 3.24-1.609 2.679-6.461-1.375-3.428-2.864-5.009-3.5-8.702-3.5-3.695 0-4.402.285-3.908 1.575.515 1.34-.256 1.533-5.143 1.294-10.791-.529-15.519-.021-14.898 1.599.31.807.104 1.752-.459 2.1-1.669 1.031-1.832.119-.799-4.478.809-3.594.689-4.675-.677-6.185-2.551-2.819-7.865-4.269-10.492-2.863-1.438.77-2.388.822-2.801.153-.344-.556-2.312-1.328-4.373-1.715-3.342-.626-3.748-.48-3.748 1.35zm65 .17c0 .55.928 1 2.06 1 1.131 0 1.78-.45 1.44-1s-1.266-1-2.059-1-1.441.45-1.441 1zm-339.454 3.925c-.808 1.307 1.531 6.075 2.98 6.075 1.47 0 6.474-3.831 6.474-4.956 0-1.373-3.76-1.879-5.041-.678-.904.848-1.324.819-1.667-.116-.54-1.471-1.935-1.636-2.746-.325zm-38.344 5.559c-2.364 1.86-4.807 3.551-5.43 3.759-1.74.58-.071 3.757 1.974 3.757.995 0 2.838-.721 4.096-1.602s2.558-1.331 2.889-1 .077.602-.564.602c-.642 0-1.167.862-1.167 1.917 0 1.054-.562 2.115-1.25 2.357-.687.242.438 1.156 2.5 2.032 2.063.876 3.75 1.785 3.75 2.02 0 .236-2.025.2-4.5-.079-3.7-.417-4.5-.217-4.5 1.123 0 .896.45 1.63 1 1.63s1 .675 1 1.5c0 2.031-1.24 1.886-4.273-.5-1.398-1.1-3.034-2-3.635-2-.6 0-1.092-.48-1.092-1.067 0-.597-.845-.8-1.917-.459-1.603.508-1.82.232-1.327-1.683.533-2.065.422-2.152-1.125-.883-1.2.984-2.032 1.091-2.767.356-.706-.706-2.188-.737-4.517-.094-1.906.526-4.002.764-4.657.529-.654-.236-1.962-.032-2.906.453-1.286.661-2.104.29-3.267-1.485-.853-1.302-3.884-3.638-6.736-5.19s-6.488-4.154-8.079-5.782c-2.751-2.815-3.188-2.929-8.891-2.333-3.298.345-8.038 1.529-10.531 2.632-2.494 1.103-5.547 2.006-6.785 2.006-2.963 0-4.313 1.774-4.815 6.33-.515 4.675-1.247 5.421-3.771 3.845-2.924-1.826-8.186-.547-9.538 2.319-1.418 3.004-.07 4.506 4.043 4.506 2.739 0 2.871.144 1.445 1.569-.863.863-3.547 1.793-5.964 2.066-5.868.662-10.021 3.191-12.137 7.389-1.487 2.952-1.529 3.53-.286 3.966 1.024.359 1.174.955.507 2.01-1.429 2.26-1.213 2.7249 1.592 3.4279 5.198 1.305 1.514 4.011-12.571 9.234l-3.5 1.298 4.014-.454c5.736-.649 23.486-7.883 23.486-9.573 0-.596 4.518-2.9329 5.669-2.9329.317 0-.042.746-.797 1.6569-1.252 1.511-1.021 1.592 2.628.915 2.2-.408 4.71-1.3779 5.579-2.1569 2.038-1.827 3.561-1.797 4.283.086.317.826 2.094 2.2259 3.948 3.1099 3.566 1.7 7.096 7.583 5.506 9.173-1.084 1.084.102 9.385 1.24 8.682 1.237-.765 2.298 1.58 1.208 2.67-.528.528-.74 3.262-.47 6.074.427 4.444.276 5.031-1.151 4.483-2.082-.799-2.093.737-.031 4.228 1.531 2.592 1.478 3.013-1.072 8.404-1.477 3.121-3.041 5.675-3.476 5.675s-1.977 2.644-3.427 5.875c-3.748 8.352-3.509 18.396.469 19.659 1.039.329 2.122 1.807 2.406 3.283.284 1.475 1.12 4.57 1.858 6.877.793 2.48.975 4.561.444 5.092-.532.532-.268 1.422.644 2.179.848.704 1.542 2.055 1.542 3.002 0 1.679 3.631 5.761 4.397 4.944.211-.226-.688-3.561-1.998-7.411-2.771-8.146-2.973-10.5-.899-10.5.825 0 1.5.836 1.5 1.858 0 1.792 6.098 14.334 8.214 16.894.569.689.777 2.545.461 4.124-.433 2.164-.033 3.356 1.625 4.846 3.872 3.478 11.719 6.594 16.428 6.523 3.098-.047 5.025.508 6.342 1.825 1.04 1.04 3.912 2.4 6.381 3.022 4.463 1.124 6.024 2.313 8.01 6.105.931 1.778 2.459 2.813 8.941 6.058 1.416.709 2.132.542 2.8-.651 1.321-2.361 3.317-1.955 4.637.943 2.433 5.339 1.722 7.279-4.624 12.619-3.809 3.204-6.478 8.171-5.121 9.528.654.654.467 1.425-.552 2.271-2.24 1.86-1.895 4.827.958 8.217 1.375 1.634 2.5 3.635 2.5 4.447 0 .811.878 3.139 1.95 5.173 1.073 2.034 2.172 4.455 2.443 5.381.271.925 2.944 3.25 5.939 5.167 2.996 1.916 5.699 3.892 6.007 4.39.659 1.065-1.809 21.965-3.278 27.76-.557 2.2-1.024 5.617-1.037 7.593-.013 1.977-.978 6.252-2.145 9.5-1.167 3.249-2.218 7.932-2.337 10.407s-.496 6.975-.839 10c-.536 4.735-.462 5.117.53 2.75 1.262-3.01 3.203-3.816 2.407-1-.271.962-.786 3.633-1.144 5.935-.454 2.921-1.408 4.682-3.157 5.829-2.368 1.551-2.407 1.716-.7 2.964 1.593 1.165 1.647 1.619.453 3.849-.826 1.545-1.086 3.627-.667 5.351.377 1.552.666 3.834.642 5.072-.028 1.421.549 2.25 1.567 2.25 1.269 0 1.364.298.447 1.403-.888 1.069-.881 1.497.03 1.801.657.219 1.264 1.35 1.35 2.513.186 2.529 2.292 5.283 4.039 5.283.69 0 1.815.675 2.5 1.5s2.052 1.5 3.039 1.5 1.98.557 2.207 1.238c.319.956 1.078.907 3.333-.215 1.607-.8 3.821-1.744 4.921-2.098 1.877-.605 1.846-.708-.5-1.67-3.708-1.521-5.767-4.265-6.863-9.143-1.122-4.99-.817-6.138 3.054-11.512 3.332-4.626 3.495-6.162.809-7.6-1.1-.589-2-1.726-2-2.527s.9-2.018 2-2.705 2-1.753 2-2.369 1.064-2.688 2.364-4.604c2.295-3.382 2.309-3.518.461-4.672-2.492-1.557-1.434-3.123 2.109-3.123 2.299 0 2.921-.526 3.389-2.864.486-2.431 1.18-2.961 4.592-3.506 5.652-.904 8.357-4.058 7.555-8.808l-.625-3.699 4.327-.312c4.102-.295 4.505-.611 7.718-6.061 1.865-3.163 3.899-5.75 4.521-5.75 1.512 0 6.059-8.43 5.252-9.736-.721-1.167 2.943-6.264 4.5025-6.264.561 0 2.164-.9 3.562-2 1.399-1.1 3.8-2 5.336-2 1.537 0 3.454-.659 4.26-1.466 2.544-2.544 5.636-9.944 6.301-15.082.514-3.972 1.575-6.041 5.363-10.456 2.597-3.027 5.037-6.497 5.423-7.712.824-2.598-.873-6.284-2.894-6.284-.777 0-2.627-1.125-4.111-2.5-1.946-1.804-3.909-2.535-7.051-2.625-5.384-.155-5.208-.114-8.867-2.07-1.657-.886-5.257-1.951-8-2.367-2.7435-.415-4.4245-.946-3.7375-1.18 3.3635-1.143-.521-9.054-5.779-11.773-1.58-.817-4.266-1.485-5.969-1.485-2.019 0-3.904-.87-5.414-2.5-1.275-1.375-2.796-2.5-3.38-2.5-.585 0-1.928-1.099-2.985-2.443-1.742-2.215-2.435-2.391-7.418-1.876-4.245.438-6.103.17-8.156-1.175-2.056-1.347-2.976-1.479-4.057-.583-1.048.87-1.493.873-1.78.012-.603-1.808-7.659.545-10.878 3.628-2.129 2.04-3.151 2.415-4.509 1.655-.966-.541-3.478-.752-5.581-.47-6.378.855-8.505-2.635-5.338-8.759 1.397-2.703 1.366-2.987-.434-3.951-1.067-.571-3.77-1.038-6.006-1.038s-4.066-.284-4.066-.631c0-.346 1.606-2.865 3.569-5.598 1.963-2.732 3.343-5.193 3.067-5.468-1.008-1.009-8.636.901-8.636 2.162 0 2.017-2.24 3.39-6.689 4.101-3.369.539-4.463.282-6.201-1.456-2.797-2.797-2.661-6.11.54-13.084 3.173-6.911 7.702-9.585 14.872-8.776 3.018.34 4.762.037 5.808-1.008 1.152-1.152 2.755-1.337 6.999-.807 5.224.653 7.53 2.367 6.162 4.58-.613.991 1.513 5.985 2.547 5.985 1.813 0 3.038-3.077 2.459-6.174-1.021-5.46.52-7.699 8.06-11.71 5.674-3.019 7.001-4.19 7.259-6.405.174-1.491.662-2.711 1.084-2.711s2.66-1.747 4.973-3.883 5.426-4.13 6.917-4.431c1.527-.309 3.146-1.551 3.71-2.846 1.174-2.697 8.241-5.18 10.237-3.598 2.072 1.643 13.891-2.417 12.69-4.359-.456-.739-.981-.729-1.74.03-2.861 2.861-7.559-.604-5.59-4.122 1.223-2.185-.427-3.169-3.904-2.329-2.575.621-2.604.586-.667-.806 2.309-1.659 13.482-3.337 13.459-2.021-.009.476-.437 1.531-.952 2.346-.763 1.207.117 1.693 4.765 2.634 3.1365.634 5.9795.991 6.3185.793 1.401-.82-.464-5.272-2.465-5.887-1.992-.612-1.911-.766 1.099-2.094 4.197-1.85 4.111-3.996-.322-8.057-3.015-2.761-3.648-4.09-4.059-8.512-.6345-6.826-1.0155-7.282-4.0745-4.876-4.365 3.434-8.524 2.184-6.336-1.905 1.585-2.963-2.423-6.849-7.488-7.259-3.669-.297-3.999-.099-5.027 3.017-.605 1.834-1.704 3.708-2.443 4.165-.739.456-1.604 2.772-1.922 5.146-.511 3.81-1.078 4.592-4.829 6.66-2.615 1.442-4.25 3.053-4.25 4.187 0 2.88-1.086 5.007-2.557 5.007-2.114 0-3.361-3.086-2.336-5.781.963-2.532.455-4.219-1.271-4.219-.575 0-2.911-1.259-5.191-2.797-2.28-1.539-4.997-3.124-6.038-3.524-1.041-.399-1.633-.987-1.314-1.305.319-.319.152-1.704-.371-3.079-.823-2.164-.485-2.925 2.517-5.676 5.124-4.692 13.376-8.882 16.132-8.191 1.268.319 2.602.101 2.963-.483.388-.628 1.905-.788 3.711-.391 2.703.593 2.967.456 2.294-1.192-1.455-3.5599-1.087-4.8559 1.461-5.1409 5.474-.615 7.11-1.38 8.011-3.749.517-1.36 1.348-2.472 1.848-2.472 1.453 0 2.046-3.823.674-4.349-1.373-.527-3.752.647-8.443 4.167l-3.09 2.318v-2.239c0-1.232-.754-3.073-1.676-4.092-1.286-1.42-1.402-2.127-.5-3.029.647-.647 1.176-2.125 1.176-3.285s.661-2.982 1.468-4.05c1.712-2.262 1.918-1.587.586 1.916-1.164 3.062-.362 3.788 6.732 6.103 4.189 1.367 5.59 1.473 6.75.51 1.181-.98 1.488-.901 1.589.408.069.892.181 2.108.25 2.703.069.594.912 1.656 1.875 2.36 2.411 1.763 2.191 4.257-.5 5.67-1.238.649-2.61 1.79-3.05 2.535s-2.325 1.354-4.191 1.354c-1.865 0-3.669.45-4.009.9999-.34.55-.254 1.051.191 1.114s2.153.269 3.795.458c1.642.19 3.178.921 3.414 1.627.637 1.913 5.769 6.801 7.14 6.801.701 0 .978-.825.67-2-.633-2.421.047-2.53 2.414-.388 1.662 1.505 1.828 1.428 2.475-1.151.4135-1.646.197-3.558-.535-4.73-.942-1.508-.954-2.231-.051-3.0989.8855-.85 1.5445-.593 2.6485 1.0339 1.415 2.083 1.583 2.102 4.399.5 3.665-2.0859 3.659-2.7619-.06-6.3159-3.03-2.896-3.836-4.85-2-4.85 1.665 0 1.057-4.352-.944-6.75-1.032-1.237-2.314-2.25-2.85-2.25-1.0115 0-2.5145-3.668-2.3015-5.617.225-2.066-2.795-3.562-7.327-3.631-2.476-.037-4.304-.387-4.063-.777.242-.39-1.652-.996-4.207-1.346-5.034-.69-8.645.824-9.764 4.094-.334.978-2.394 3.01-4.576 4.517-3.697 2.554-5.515 6.76-2.921 6.76 1.263 0-2.028 4.703-3.797 5.426-.734.3-1.25-.253-1.25-1.341 0-1.058.928-2.094 2.164-2.418 1.815-.474 1.96-.813.895-2.095-.948-1.143-1.748-1.274-3.164-.516-1.042.558-1.895 1.511-1.895 2.119 0 1.568-3.145 3.756-5.452 3.793-1.074.018-3.423-1.393-5.22-3.135l-3.267-3.166-2.781 2.784c-2.323 2.328-2.835 2.507-3.117 1.094-.206-1.032-.92-1.468-1.83-1.119-.821.315-2.572.301-3.892-.03-1.922-.482-2.213-.953-1.462-2.357 1.12-2.092 11.73-3.73 13.392-2.068 1.32 1.32 5.629 1.342 5.629.029 0-.55.9-1 2-1 2.243 0 2.509-1.181.929-4.133-1.178-2.201.777-6.2 4.241-8.674 1.007-.718 1.83-1.78 1.83-2.358 0-1.844-5.378.16-7.75 2.888-1.238 1.424-2.25 2.036-2.25 1.361 0-1.512-2.474-4.084-3.929-4.084-.589 0-1.071-1.278-1.071-2.839 0-2.073-.688-3.154-2.547-4-3.853-1.756-5.557-1.37-10.251 2.323zm337.298-1.484c-.34.55-.141 1 .441 1s1.059-.45 1.059-1-.198-1-.441-1-.719.45-1.059 1zm-292.054 2.087c-.369.598-.152 1.607.483 2.242.872.872 1.372.802 2.047-.29.953-1.542.472-3.039-.976-3.039-.485 0-1.184.489-1.554 1.087zm222.5965 1.362c-.661.797-2.719 1.95-4.574 2.562s-3.649 1.985-3.988 3.051c-.338 1.066-.922 1.938-1.297 1.938-.376 0-.66 1.463-.631 3.25s-.284 4.509-.694 6.049c-.651 2.44-.337 3.048 2.448 4.746 1.757 1.071 4.291 1.949 5.631 1.951l2.437.004-2.687-2.805c-4.361-4.552-3.322-9.64 3.274-16.042 2.2215-2.155 4.0385-4.422 4.0385-5.036 0-1.594-2.536-1.381-3.9575.332zm-235.0575 4.579c-.597 1.115-1.422 1.82-1.833 1.566s-1.312-.113-2.001.313c-.991.612-1 1.33-.042 3.434 1.325 2.906 2.08 3.164 4.881 1.664 1.735-.928 5.01-6.261 5.01-8.159 0-1.768-4.957-.795-6.015 1.182zm19.139 7.239c-.988.98-1.102.865-.56-.56.376-.986.935-1.541 1.243-1.233.308.307.001 1.114-.683 1.793zm9.876-.267c0 .55-.477 1-1.059 1s-.781-.45-.441-1 .816-1 1.059-1 .441.45.441 1zm-6.457 16.931c-1.002 1.621 1.175 2.114 2.466.558 1.005-1.211.944-1.489-.328-1.489-.859 0-1.822.419-2.138.931zm84.7945 12.6329c-.33.86-.1 2.66.51 4 .891 1.956 1.854 2.435 4.882 2.432 2.074-.002 5.248-.904 7.053-2.005 2.812-1.714 3.13-2.287 2.215-3.996-1.19-2.225-1.868-2.326-7.252-1.075-2.188.508-3.987.498-4.309-.024-.863-1.396-2.437-1.056-3.099.668zm79.663 1.196c0 .418-1.125 1.974-2.5 3.457-3.171 3.42-3.365 8.25-.394 9.84 1.543.825 3.266.835 6.443.035 5.485-1.381 5.451-1.384 5.451.408 0 1.031-1.034 1.5-3.309 1.5-1.82 0-4.133.603-5.14 1.339-1.655 1.21-1.673 1.4-.191 1.969 2.415.927 1.996 2.707-.573 2.43-1.747-.188-2.328.393-2.759 2.762-.476 2.613-1.061 3.072-4.537 3.555-2.195.305-5.003 1.108-6.241 1.785-1.638.896-2.25.919-2.25.087 0-.701-.91-.916-2.352-.554-4.632 1.163-3.546-.746 1.589-2.793 3.549-1.415 5.338-2.731 5.552-4.084.173-1.098.822-3.018 1.442-4.266.848-1.705.835-2.564-.051-3.45-2.064-2.064-1.396-6.592 1.225-8.31 1.322-.866 2.681-2.677 3.019-4.023.445-1.773 1.297-2.447 3.095-2.447 1.365 0 2.481.342 2.481.76zm-185.0005 1.209c0 .532.675.709 1.5.393.825-.317 1.5-.753 1.5-.969s-.675-.393-1.5-.393-1.5.436-1.5.969zm-155.187 5.714c.721.289 1.584.253 1.916-.079s-.258-.568-1.312-.525c-1.165.048-1.402.285-.604.604zm361.1875 2.435c0 .55-.45.722-1 .382s-1-1.068-1-1.618.45-.722 1-.382 1 1.068 1 1.618zm-5.872 2.357c.038 1.688-1.853 1.684-2.501-.005-.428-1.114-.14-1.515.929-1.293.852.178 1.56.762 1.572 1.298zm-304.7445 4.967c-.304.792-.403 2.189-.219 3.103.226 1.119.714.649 1.498-1.442.672-1.793.764-3.103.219-3.103-.52 0-1.194.649-1.498 1.442zm238.283477 3.225c-1.640987 1.641-.569001 6.167 1.833003 7.741 2.87 1.881 3.267 3.592.83301 3.592-.91598 0-1.36999.296-1.00799.658s.15597 1.262-.45603 2c-.829984 1-.796995 1.342.13101 1.342.96201 0 .944.362-.07501 1.591-1.187986 1.431-.822996 1.524 3.62702.925 2.721-.366 5.51101-.843 6.19801-1.059 2.249-.709 1.317-4.019-2.33202-8.282-1.97-2.301-3.39599-4.741-3.169-5.421.811-2.435-3.72501-4.945-5.582003-3.087zm-6.240997 8.105c-2.707 2.256-3.12399 7.228-.60599 7.228 2.853 0 5.10001-2.231 5.79199-5.75.537998-2.742.345005-3.247-1.237-3.228-1.031.012-2.80801.8-3.949 1.75zm-220.30248 6.495c-.988.98-1.102.865-.56-.56.376-.986.935-1.541 1.243-1.233.308.307.001 1.114-.683 1.793zm519.494 3.096c.375 1.175.769 3.262.875 4.637.285 3.672.408 4 1.507 4 .55 0 1-.675 1-1.5s.789-1.514 1.75-1.532c2.363-.043 5.269-2.357 4.428-3.526-.373-.518-2.829-1.679-5.459-2.579-4.766-1.632-4.78-1.63-4.101.5zm-178.791 6.928c.795.959.57 1.605-.878 2.509-2.664 1.663-2.446 3.653.551 5.018 1.375.627 2.5 1.736 2.5 2.466s1.125 2.852 2.5 4.716c4.482 6.074 2.481 8.44-5.362 6.34-2.092-.56-2.303-1.072-1.845-4.486.284-2.12.161-3.854-.274-3.854-1.23 0-8.019-7.299-8.019-8.623 0-1.45 5.893-5.337 8.128-5.36.895-.009 2.109.564 2.699 1.274zm-29.7905 2.165c-1.226 1.478.121 2.876 5.226 5.426 5.089 2.543 4.253 4.653-1.762 4.446-8.192-.282-11.756-.294-16.5-.055l-4.5.227.155-3.316c.085-1.824.942-4.186 1.905-5.25 2.057-2.274 6.44-2.609 6.44-.493 0 1.961 1.234 2.572 3.826 1.894 2.604-.681 2.888-2.302.424-2.416-1.123-.052-.675-.555 1.25-1.404 3.358-1.479 5.149-1.003 3.536.941zm213.1855 5.044c.212 4.584-.037 5.934-1.058 5.721-.734-.153-1.568.606-1.849 1.687-.284 1.082-1.818 2.421-3.412 2.976-3.913 1.364-5.684 5.285-3.898 8.625 1.93 3.607 3.351 3.074 2.689-1.009-.331-2.038-.152-3.5.428-3.5.548 0 .719.45.378 1-.34.55.057 1 .883 1 .825 0 1.802-.489 2.172-1.087.369-.598 1.52-.865 2.558-.594 1.038.272 1.887.079 1.887-.429 0-.507 1.59-1.68 3.531-2.606 2.521-1.202 3.343-2.127 2.875-3.234-.362-.852-.999-3.289-1.418-5.414s-1.949-5.05-3.402-6.5l-2.643-2.636zm-271.2215 4.5c0 .55.45 1 1 1s1-.45 1-1-.45-1-1-1-1 .45-1 1zm.177 4.553c.452 2.172 2.227 2.305 2.633.197.21-1.095-.28-1.75-1.31-1.75-.961 0-1.512.647-1.323 1.553zm51.823 10.416c0 .532.675.709 1.5.393.825-.317 1.5-.753 1.5-.969s-.675-.393-1.5-.393-1.5.436-1.5.969zm196.4745 17.072c-.879 1.422.297 5.959 1.544 5.959 1.249 0 1.293-5.689.05-6.457-.512-.317-1.229-.093-1.594.498zm-448.225 8.103c-1.787.502-3.25 1.013-3.249 1.135.001.121 2.47.245 5.487.274 4.071.039 6.276.635 8.543 2.312 1.925 1.423 4.058 2.122 5.763 1.888 2.46-.337 2.205-.606-2.794-2.952-6.97-3.27-9.696-3.797-13.75-2.657zm21.75 7.356c0 .825-.787 1.539-1.75 1.586-1.018.05-.608.43.978.908 1.501.452 4.553.577 6.782.278 3.882-.521 3.983-.623 2.367-2.408-2.101-2.322-8.377-2.594-8.377-.364zm431.623.301c-.825 1.335.106 5.228 1.695 7.086.757.887 1.742 2.513 2.185 3.613.723 1.792.851 1.818 1.226.25.56-2.342 2.157-2.205 4.957.424 1.272 1.196 2.314 1.716 2.314 1.155 0-1.406-3.049-3.955-5.693-4.76-1.651-.503-2.268-1.577-2.5-4.36-.297-3.576-2.814-5.625-4.184-3.408zm13.377 13.64c0 .793.45 1.719 1 2.059s1-.309 1-1.441-.45-2.059-1-2.059-1 .648-1 1.441zm-4.968.286c.017.425.694 1.649 1.504 2.719 1.026 1.357 1.789 1.629 2.519.899s.276-1.554-1.503-2.719c-1.404-.92-2.538-1.324-2.52-.899zm-8.011 3.749c-.789.95-.866 1.524-.202 1.524 1.208 0 2.617-1.897 1.924-2.591-.252-.251-1.027.229-1.722 1.067zm-88.021 3.324c0 2.988 1.574 5.2 3.7 5.2 1.94 0 1.569-4.446-.529-6.345-2.549-2.307-3.171-2.082-3.171 1.145zm102.166-1.318c-1.283.708-2.859 1.839-3.5 2.515-.908.957-.707 1.09.916.601 1.4-.421 2.681.034 3.905 1.388 1.003 1.108 2.174 2.014 2.601 2.014 1.22 0 2.113-3.792 1.412-6-.716-2.258-1.956-2.379-5.334-.518zm-17.276 6.268c-3.669 4.13-9.917 9.25-11.286 9.25-2.774 0-2.802 2.107-.078 6.036 2.062 2.975 3.589 4.062 6.344 4.513 1.997.327 4.601 1.066 5.786 1.641 3.023 1.467 4.013.504 4.787-4.654.37-2.469 1.099-4.752 1.617-5.073.582-.36.534-1.355-.125-2.586-.589-1.102-.935-3.31-.768-4.907.208-1.98-.327-3.383-1.68-4.405-2.539-1.919-2.735-1.912-4.597.185zm29.722 9.071c-.339.547-.229 2.041.245 3.32l.86 2.326.741-2.334c.776-2.442-.724-5.13-1.846-3.312zm-17.182 2.479c-1.826 1.021-1.852 8.56-.037 10.95 1.841 2.427 3.537 2.194 2.859-.394-.557-2.133-.544-2.132 2.581.179 3.935 2.908 5.326 1.828 2.089-1.62-2.268-2.413-2.31-2.657-.672-3.856 2.574-1.882 2.151-2.526-1.5-2.279-1.788.121-3.474-.23-3.75-.78-.289-.578 1.505-1.129 4.25-1.305 2.612-.167 4.75-.617 4.75-1 0-.963-8.818-.876-10.57.105zm27.57 2.715c-1.333.876-1.333 1.094 0 1.97.825.541 2.013.991 2.639 1 .626.008 1.076.746 1 1.64-.101 1.18 1.577 2.101 6.133 3.364 6.94 1.926 10.527 4.493 9.741 6.972-.409 1.291.716 1.899 5.476 2.955 5.763 1.279 6.06 1.246 7.764-.86l1.773-2.188 3.987 2.706c4.398 2.987 9.247 4.692 10.732 3.775.526-.325-.776-1.564-2.894-2.752-2.117-1.187-4.437-3.383-5.156-4.878-.716-1.495-1.807-2.719-2.421-2.719s-1.882-.693-2.818-1.54c-1.948-1.763-10.428-5.054-16.77-6.508-3.555-.815-4.844-.678-7.324.779-2.918 1.714-3.052 1.707-4.401-.231-3.36-4.828-4.56-5.389-7.461-3.485zm-4.5 5.985c2.752 1.183 3.732 1.183 3 0-.34-.55-1.604-.968-2.809-.93-2.112.068-2.118.101-.191.93zm63.233 6.124c.679.684 1.486.991 1.793.683.308-.308-.246-.867-1.232-1.243-1.425-.542-1.541-.428-.561.56zm-91.233 5.876c.341.55 1.466 1 2.5 1 1.035 0 2.16-.45 2.5-1 .362-.585-.676-1-2.5-1-1.823 0-2.862.415-2.5 1zm10.263-.293c1.244.239 3.044.23 4-.02s-.063-.446-2.263-.435-2.982.216-1.737.455zm8.582 1.836c-.885 2.307-.163 2.381 3.155.326l3-1.858-2.781-.006c-1.589-.003-3.036.657-3.374 1.538zm44.124 10.956c.604 6.461.474 7.586-.951 8.132-.909.349-2.162.125-2.785-.498s-1.83-1.145-2.683-1.16-3.07-1.287-4.927-2.828c-3.025-2.509-3.251-3.037-2.169-5.059 1.426-2.665 1.762-2.362-4.319-3.905-3.278-.832-5.26-.908-6.074-.232-.822.682-1.603.611-2.444-.223-.977-.97-1.109-.894-.63.364.333.874-.091 2.167-.94 2.872-.852.706-1.547 1.903-1.547 2.66 0 1.646-3.146 1.832-4.698.279-1.662-1.662-4.599-.265-6.505 3.096-.937 1.652-2.4 3.003-3.25 3.003-.851 0-1.56.788-1.578 1.75-.057 3.078-2.297 4.729-9.643 7.105-3.946 1.276-7.842 3.068-8.66 3.983-2.064 2.309-1.197 12.205 1.534 17.534 1.345 2.623 2.287 6.751 2.586 11.325.443 6.779.63 7.252 3.228 8.158 2.158.752 3.441.546 5.896-.947 1.726-1.049 4.947-1.908 7.155-1.908 2.292 0 5.179-.803 6.725-1.871 4.491-3.1 13.323-4.637 18.43-3.207 4.285 1.199 8.78 5.847 8.78 9.077 0 .834 1.182.244 3-1.499 3.266-3.129 3.52-2.995 1.982 1.049-.816 2.146-.746 2.575.352 2.153 1.811-.695 4.848 2.947 5.624 6.747.742 3.624 7.171 7.83 10.972 7.177 1.337-.23 3.188.055 4.114.633 1.271.793 2.822.5 6.319-1.193 4.147-2.007 4.637-2.598 4.637-5.596 0-1.844.439-3.623.974-3.953.534-.331 1.48-2.495 2.102-4.809s1.558-4.474 2.081-4.8c1.36-.848 3.062-13.929 1.989-15.288-.487-.616-1.179-2.753-1.538-4.748-.491-2.726-2.573-5.601-8.379-11.567-4.251-4.366-8.458-8.358-9.352-8.872-.893-.513-2.824-3.317-4.291-6.23-1.466-2.913-3.322-5.548-4.122-5.855s-2.439-2.311-3.643-4.453c-3.274-5.825-4.149-4.885-3.352 3.604z" fill="#2970bb" fill-rule="evenodd"/></g><g filter="url(#a)"><rect fill="#fff" height="40" rx="8" width="120" x="15.4917" y="342"/></g><g filter="url(#b)"><path d="m15.4917 24.9292c0-2.2091 1.7909-4 4-4h18c2.2091 0 4 1.7909 4 4v22h-26z" fill="#fff"/><path d="m15.9917 24.9292c0-1.933 1.567-3.5 3.5-3.5h18c1.933 0 3.5 1.567 3.5 3.5v21.5h-25z" stroke="#c0b6ef"/></g><g filter="url(#c)"><path d="m15.4917 45.9292h26v22c0 2.2091-1.7909 4-4 4h-18c-2.2091 0-4-1.7909-4-4z" fill="#fff"/><path d="m15.9917 46.4292h25v21.5c0 1.933-1.567 3.5-3.5 3.5h-18c-1.933 0-3.5-1.567-3.5-3.5z" stroke="#c0b6ef"/></g><g filter="url(#d)"><rect fill="#fff" height="26" rx="4" width="26" x="15.4917" y="80.9292"/><rect height="25" rx="3.5" stroke="#c0b6ef" width="25" x="15.9917" y="81.4292"/></g><g filter="url(#e)"><rect fill="#fff" height="26" rx="4" width="26" x="15.4917" y="114.929"/><rect height="25" rx="3.5" stroke="#c0b6ef" width="25" x="15.9917" y="115.429"/></g><g filter="url(#f)"><rect fill="#fff" height="26" rx="4" width="26" x="15.4917" y="148.929"/><rect height="25" rx="3.5" stroke="#c0b6ef" width="25" x="15.9917" y="149.429"/></g><path d="m35.4917 34.9998h-5.8471v5.9294h-2.3333v-5.9294h-5.8196v-2.1137h5.8196v-5.9569h2.3333v5.9569h5.8471z" fill="#c0b6ef"/><path d="m21.4917 58.9292h14" stroke="#c0b6ef" stroke-linejoin="round" stroke-width="2"/><path d="m21.4917 122.929h14" stroke="#c0b6ef" stroke-linejoin="round" stroke-width="2"/><path d="m23.4917 127.929h11" stroke="#c0b6ef" stroke-linejoin="round" stroke-width="2"/><path d="m25.4917 132.929h6" stroke="#c0b6ef" stroke-linejoin="round" stroke-width="2"/><circle cx="28.4917" cy="161.929" fill="#fff" r="6" stroke="#c0b6ef" stroke-width="2"/><path d="m26.3815 84.978h.0004z" fill="#88bdf2" stroke="#c0b6ef" stroke-width="2"/><path d="m30.6017 102.881c-.0002 0-.0003 0-.0005 0z" fill="#88bdf2" stroke="#c0b6ef" stroke-width="2"/><path d="m37.4428 91.8192v.0004z" fill="#88bdf2" stroke="#c0b6ef" stroke-width="2"/><path d="m19.5404 96.0393c0-.0001 0-.0003 0-.0004z" fill="#88bdf2" stroke="#c0b6ef" stroke-width="2"/><g clip-rule="evenodd" fill-rule="evenodd"><path d="m521.492 89h-174v-7h174z" fill="#ddd7fa"/><path d="m521.492 71h-174v-7h174z" fill="#ddd7fa"/><path d="m521.492 54h-174v-7h174z" fill="#ddd7fa"/><path d="m434.492 34h-87v-10h87z" fill="#c0b6ef"/><path d="m347.492 375.929v-68.273h12v68.273z" fill="#c0b6ef"/><path d="m428.492 375.929v-133h12v133z" fill="#ddd7fa"/><path d="m374.492 375.929v-86.893h12v86.893z" fill="#ddd7fa"/><path d="m455.492 375.929v-96.646h12v96.646z" fill="#ddd7fa"/><path d="m401.492 375.929v-123.246h12v123.246z" fill="#ddd7fa"/><path d="m482.492 375.929v-120.586h12v120.586z" fill="#ddd7fa"/><path d="m509.492 375.929v-58.52h12v58.52z" fill="#c0b6ef"/></g><g filter="url(#g)"><rect fill="#fff" height="50" rx="6" width="50" x="347.492" y="102.929"/></g><g filter="url(#h)"><rect fill="#fff" height="51" rx="6" width="50" x="347.492" y="161.929"/></g><g filter="url(#i)"><rect fill="#fff" height="50" rx="6" width="50" x="409.492" y="102.929"/></g><g filter="url(#j)"><rect fill="#fff" height="51" rx="6" width="50" x="409.492" y="161.929"/></g><g filter="url(#k)"><rect fill="#fff" height="50" rx="6" width="50" x="471.492" y="102.929"/></g><g filter="url(#l)"><rect fill="#fff" height="51" rx="6" width="50" x="471.492" y="161.929"/></g><path d="m366.433 133.929v-6.88h-2.304v-2.032c1.034 0 1.733-.149 2.096-.448.362-.298.544-.805.544-1.52h2.24v10.88zm14.338-5.28v2.192h-1.296v3.088h-2.544v-3.088h-4.528v-7.792h2.544v5.6h1.984v-2.816h2.544v2.816z" fill="#c0b6ef"/><path d="m424.589 133.929v-6.88h-2.304v-2.032c1.035 0 1.733-.149 2.096-.448.363-.298.544-.805.544-1.52h2.24v10.88zm7.906 0v-6.88h-2.304v-2.032c1.035 0 1.734-.149 2.096-.448.363-.298.544-.805.544-1.52h2.24v10.88zm9.842.24c-1.386 0-2.453-.33-3.2-.992-.736-.661-1.104-1.605-1.104-2.832h2.608c0 .576.15 1.019.448 1.328.31.31.742.464 1.296.464.47 0 .843-.128 1.12-.384.288-.256.432-.597.432-1.024 0-.97-.57-1.456-1.712-1.456h-1.088v-1.984h1.104c1.024 0 1.536-.442 1.536-1.328 0-.373-.128-.672-.384-.896s-.592-.336-1.008-.336c-.48 0-.858.139-1.136.416-.277.267-.416.64-.416 1.12h-2.56c0-1.045.374-1.882 1.12-2.512.747-.629 1.766-.944 3.056-.944 1.184 0 2.134.272 2.848.816.715.544 1.072 1.28 1.072 2.208 0 1.238-.666 2.043-2 2.416.683.128 1.216.422 1.6.88.395.459.592 1.03.592 1.712 0 .992-.389 1.798-1.168 2.416-.768.608-1.786.912-3.056.912z" fill="#c0b6ef"/><path d="m483.242 133.929c0-1.312.218-2.368.656-3.168.437-.81 1.157-1.477 2.16-2l1.744-.912c.8-.416 1.2-.992 1.2-1.728 0-.394-.123-.709-.368-.944-.235-.245-.55-.368-.944-.368-.502 0-.891.166-1.168.496-.267.32-.4.784-.4 1.392h-2.64c0-1.173.378-2.112 1.136-2.816.768-.714 1.786-1.072 3.056-1.072 1.248 0 2.224.288 2.928.864.704.566 1.056 1.35 1.056 2.352 0 1.451-.72 2.555-2.16 3.312l-1.616.864c-.47.256-.806.496-1.008.72-.192.224-.342.523-.448.896h5.136v2.112zm15.248-7.92c1.174.107 2.096.534 2.768 1.28.683.736 1.024 1.664 1.024 2.784 0 1.195-.389 2.176-1.168 2.944-.778.768-1.818 1.152-3.12 1.152-1.301 0-2.341-.384-3.12-1.152-.768-.768-1.152-1.749-1.152-2.944 0-1.002.272-1.856.816-2.56l3.232-4.464h2.96zm-.496 6.096c.576 0 1.024-.186 1.344-.56.331-.384.496-.874.496-1.472 0-.597-.165-1.082-.496-1.456-.32-.373-.768-.56-1.344-.56-.565 0-1.013.187-1.344.56-.33.374-.496.859-.496 1.456 0 .598.166 1.088.496 1.472.331.374.779.56 1.344.56zm10.547 2.064c-1.387 0-2.454-.33-3.2-.992-.736-.661-1.104-1.605-1.104-2.832h2.608c0 .576.149 1.019.448 1.328.309.31.741.464 1.296.464.469 0 .842-.128 1.12-.384.288-.256.432-.597.432-1.024 0-.97-.571-1.456-1.712-1.456h-1.088v-1.984h1.104c1.024 0 1.536-.442 1.536-1.328 0-.373-.128-.672-.384-.896s-.592-.336-1.008-.336c-.48 0-.859.139-1.136.416-.278.267-.416.64-.416 1.12h-2.56c0-1.045.373-1.882 1.12-2.512.746-.629 1.765-.944 3.056-.944 1.184 0 2.133.272 2.848.816.714.544 1.072 1.28 1.072 2.208 0 1.238-.667 2.043-2 2.416.682.128 1.216.422 1.6.88.394.459.592 1.03.592 1.712 0 .992-.39 1.798-1.168 2.416-.768.608-1.787.912-3.056.912z" fill="#c0b6ef"/><path d="m358.64 192.929c0-1.312.219-2.368.656-3.168.438-.81 1.158-1.477 2.16-2l1.744-.912c.8-.416 1.2-.992 1.2-1.728 0-.394-.122-.709-.368-.944-.234-.245-.549-.368-.944-.368-.501 0-.89.166-1.168.496-.266.32-.4.784-.4 1.392h-2.64c0-1.173.379-2.112 1.136-2.816.768-.714 1.787-1.072 3.056-1.072 1.248 0 2.224.288 2.928.864.704.566 1.056 1.35 1.056 2.352 0 1.451-.72 2.555-2.16 3.312l-1.616.864c-.469.256-.805.496-1.008.72-.192.224-.341.523-.448.896h5.136v2.112zm12.988 0v-6.88h-2.304v-2.032c1.035 0 1.733-.149 2.096-.448.363-.298.544-.805.544-1.52h2.24v10.88zm13.618-1.216c-.768.971-1.893 1.456-3.376 1.456-1.482 0-2.613-.485-3.392-1.456-.768-.97-1.152-2.378-1.152-4.224 0-1.845.384-3.253 1.152-4.224.779-.97 1.91-1.456 3.392-1.456 1.483 0 2.608.486 3.376 1.456.779.971 1.168 2.379 1.168 4.224 0 1.846-.389 3.254-1.168 4.224zm-3.376-.624c1.387 0 2.08-1.2 2.08-3.6s-.693-3.6-2.08-3.6c-1.386 0-2.08 1.2-2.08 3.6 0 1.227.171 2.134.512 2.72.342.587.864.88 1.568.88z" fill="#c0b6ef"/><path d="m419.273 192.929c0-1.312.219-2.368.656-3.168.437-.81 1.157-1.477 2.16-2l1.744-.912c.8-.416 1.2-.992 1.2-1.728 0-.394-.123-.709-.368-.944-.235-.245-.549-.368-.944-.368-.501 0-.891.166-1.168.496-.267.32-.4.784-.4 1.392h-2.64c0-1.173.379-2.112 1.136-2.816.768-.714 1.787-1.072 3.056-1.072 1.248 0 2.224.288 2.928.864.704.566 1.056 1.35 1.056 2.352 0 1.451-.72 2.555-2.16 3.312l-1.616.864c-.469.256-.805.496-1.008.72-.192.224-.341.523-.448.896h5.136v2.112zm10.844 0c0-1.312.218-2.368.656-3.168.437-.81 1.157-1.477 2.16-2l1.744-.912c.8-.416 1.2-.992 1.2-1.728 0-.394-.123-.709-.368-.944-.235-.245-.55-.368-.944-.368-.502 0-.891.166-1.168.496-.267.32-.4.784-.4 1.392h-2.64c0-1.173.378-2.112 1.136-2.816.768-.714 1.786-1.072 3.056-1.072 1.248 0 2.224.288 2.928.864.704.566 1.056 1.35 1.056 2.352 0 1.451-.72 2.555-2.16 3.312l-1.616.864c-.47.256-.806.496-1.008.72-.192.224-.342.523-.448.896h5.136v2.112zm18.496-1.216c-.768.971-1.893 1.456-3.376 1.456-1.482 0-2.613-.485-3.392-1.456-.768-.97-1.152-2.378-1.152-4.224 0-1.845.384-3.253 1.152-4.224.779-.97 1.91-1.456 3.392-1.456 1.483 0 2.608.486 3.376 1.456.779.971 1.168 2.379 1.168 4.224 0 1.846-.389 3.254-1.168 4.224zm-3.376-.624c1.387 0 2.08-1.2 2.08-3.6s-.693-3.6-2.08-3.6c-1.386 0-2.08 1.2-2.08 3.6 0 1.227.171 2.134.512 2.72.342.587.864.88 1.568.88z" fill="#c0b6ef"/><path d="m486.541 193.169c-1.387 0-2.454-.33-3.2-.992-.736-.661-1.104-1.605-1.104-2.832h2.608c0 .576.149 1.019.448 1.328.309.31.741.464 1.296.464.469 0 .842-.128 1.12-.384.288-.256.432-.597.432-1.024 0-.97-.571-1.456-1.712-1.456h-1.088v-1.984h1.104c1.024 0 1.536-.442 1.536-1.328 0-.373-.128-.672-.384-.896s-.592-.336-1.008-.336c-.48 0-.859.139-1.136.416-.278.267-.416.64-.416 1.12h-2.56c0-1.045.373-1.882 1.12-2.512.746-.629 1.765-.944 3.056-.944 1.184 0 2.133.272 2.848.816.714.544 1.072 1.28 1.072 2.208 0 1.238-.667 2.043-2 2.416.682.128 1.216.422 1.6.88.394.459.592 1.03.592 1.712 0 .992-.39 1.798-1.168 2.416-.768.608-1.787.912-3.056.912zm10.817 0c-1.216 0-2.192-.293-2.928-.88-.736-.597-1.142-1.402-1.216-2.416h2.512c.042.384.213.683.512.896.298.214.672.32 1.12.32.565 0 1.002-.17 1.312-.512.32-.352.48-.821.48-1.408 0-.554-.15-1.002-.448-1.344-.288-.341-.688-.512-1.2-.512-.864 0-1.451.358-1.76 1.072h-2.272v-6.336h7.584v2h-5.264v2.32c.533-.576 1.306-.864 2.32-.864 1.066 0 1.92.336 2.56 1.008.64.662.96 1.531.96 2.608 0 1.184-.39 2.155-1.168 2.912-.768.758-1.803 1.136-3.104 1.136zm9.18.096-1.216-.704 7.584-10.944 1.2.704zm2.064-6.672c-.533.523-1.243.784-2.128.784s-1.595-.261-2.128-.784c-.523-.533-.784-1.178-.784-1.936 0-.757.261-1.397.784-1.92.533-.533 1.243-.8 2.128-.8s1.595.267 2.128.8c.533.523.8 1.163.8 1.92 0 .758-.267 1.403-.8 1.936zm-3.024-1.04c.213.235.512.352.896.352s.683-.117.896-.352c.213-.234.32-.533.32-.896 0-.362-.107-.661-.32-.896-.213-.245-.512-.368-.896-.368s-.683.123-.896.368c-.213.235-.32.534-.32.896 0 .363.107.662.32.896zm9.488 6.704c-.533.523-1.243.784-2.128.784s-1.595-.261-2.128-.784c-.523-.533-.784-1.178-.784-1.936 0-.757.261-1.397.784-1.92.533-.533 1.243-.8 2.128-.8s1.595.267 2.128.8c.533.523.8 1.163.8 1.92 0 .758-.267 1.403-.8 1.936zm-3.024-1.04c.213.235.512.352.896.352s.683-.117.896-.352c.213-.234.32-.533.32-.896 0-.362-.107-.661-.32-.896-.213-.245-.512-.368-.896-.368s-.683.123-.896.368c-.213.235-.32.534-.32.896 0 .363.107.662.32.896z" fill="#c0b6ef"/></svg>