<svg width="135" height="135" viewBox="0 0 135 135" fill="none" xmlns="http://www.w3.org/2000/svg">
<g clip-path="url(#clip0)">
<rect width="135" height="135" fill="white"/>
<g filter="url(#filter0_f)">
<circle cx="67" cy="67" r="50" fill="#DDD7FA"/>
</g>
<circle cx="67" cy="67" r="50" fill="white"/>
<mask id="path-3-outside-1" maskUnits="userSpaceOnUse" x="47.0552" y="36.1595" width="39" height="63" fill="black">
<rect fill="white" x="47.0552" y="36.1595" width="39" height="63"/>
<path d="M81.8894 61.9581C81.7605 61.6971 81.7136 61.4004 81.737 61.1037L82.5808 50.7681C82.6745 49.6052 82.2527 48.4779 81.4089 47.6709C80.5768 46.864 79.4401 46.4962 78.2916 46.6623C77.4127 46.781 76.5572 47.0776 75.7954 47.5167C75.7368 47.4336 75.6665 47.3505 75.6079 47.2675C74.0141 45.3451 71.1781 45.0959 69.2796 46.6979L62.4122 52.5243V51.219C62.4122 51.1241 62.4357 51.0291 62.4943 50.9461L63.924 48.8339C63.9474 48.7983 63.9592 48.7745 63.9826 48.7389L66.303 45.2977H66.2913L66.9827 44.2771C67.6624 43.2804 67.9085 42.07 67.6858 40.8715C67.4632 39.673 66.7952 38.6406 65.8108 37.9523C64.8264 37.2641 63.631 37.0149 62.4474 37.2404C61.2638 37.4658 60.2442 38.1422 59.5645 39.139L54.5487 46.5792C53.8104 47.6709 53.4237 48.9406 53.4237 50.2578V60.1188L50.7869 62.3497C48.9001 63.9517 47.8806 66.3962 48.0798 68.8881L48.5954 75.4621V75.5215L48.6423 76.0792C48.6423 76.1029 48.6423 76.1385 48.654 76.1622L48.9587 79.7578C48.9587 79.8052 48.9587 79.8646 48.9587 79.912C48.9587 79.9476 48.9704 79.9832 48.9704 80.0307L48.9822 80.1019C49.3337 82.582 50.3299 84.9197 51.8651 86.8658L55.4863 91.4699V96.9166C55.4863 97.4031 55.8847 97.8066 56.3652 97.8066C56.8457 97.8066 57.2441 97.4031 57.2441 96.9166V91.1614C57.2441 90.9597 57.1738 90.7698 57.0566 90.6037L53.2362 85.7622C51.9002 84.0534 51.033 82.0243 50.7166 79.8646L50.3299 75.3079L49.8142 68.7457C49.6619 66.8234 50.4471 64.9485 51.9002 63.7144L70.3812 48.0507C71.5414 47.0658 73.2641 47.22 74.2368 48.3948C75.2095 49.5696 75.0571 51.3139 73.897 52.2988L64.2756 60.463C63.6779 60.6054 63.1037 60.902 62.6115 61.3411L57.9238 65.4706C57.5605 65.791 57.5254 66.3487 57.8418 66.7284C58.1582 67.0963 58.709 67.1319 59.084 66.8115L63.7834 62.6701C64.6037 61.9463 65.7991 61.9463 66.6194 62.6582L73.7329 68.7813C74.2837 69.256 74.6235 69.9324 74.6821 70.6681C74.7407 71.4038 74.5181 72.1277 74.0376 72.6854C73.686 73.1007 73.229 73.3974 72.725 73.5398L67.7444 69.256C66.2561 67.9744 64.0998 67.9863 62.6115 69.2797L57.9121 73.4211C57.5488 73.7415 57.5137 74.2992 57.8301 74.6789C58.1465 75.0468 58.6973 75.0824 59.0723 74.762L63.7717 70.6206C64.592 69.8968 65.7873 69.8968 66.6077 70.6088L73.7212 76.7318C74.272 77.2065 74.6118 77.8829 74.6704 78.6186C74.729 79.3543 74.5063 80.0782 74.0259 80.6359C73.5571 81.1936 72.8891 81.5377 72.1625 81.5971C71.4359 81.6564 70.7211 81.4309 70.1703 80.9444L65.7639 77.1472C65.4123 76.8505 64.8967 76.8624 64.5803 77.1946L63.2912 78.5355C62.9513 78.8797 62.9513 79.4492 63.2912 79.7934C63.631 80.1375 64.1935 80.1375 64.5334 79.7934L65.2717 79.0458L69.057 82.3091C69.8773 83.0092 70.8969 83.3889 71.9633 83.3889C72.0805 83.3889 72.2094 83.3889 72.3266 83.377C73.5219 83.2821 74.6118 82.7125 75.3853 81.7869C76.1587 80.8613 76.5337 79.6866 76.44 78.4762C76.3462 77.2658 75.7837 76.1622 74.8696 75.3791L74.2134 74.8213C74.647 74.5603 75.0454 74.228 75.3736 73.8364C76.9791 71.9259 76.7447 69.0542 74.8579 67.4285L71.7055 64.7111L73.6157 54.862L75.0337 53.6516C75.9478 52.8684 76.522 51.7767 76.6275 50.5664C76.6744 50.068 76.6392 49.5814 76.522 49.1186C77.1314 48.7508 77.8111 48.5016 78.526 48.4067C79.1354 48.3236 79.7448 48.5253 80.1901 48.9525C80.6354 49.3797 80.8698 49.9849 80.8112 50.6138L79.9674 60.9495C79.9206 61.5547 80.026 62.1717 80.2956 62.7294L81.8542 66.0046C83.823 70.1341 83.8933 74.8925 82.0417 79.0695L81.5964 80.09H81.5847L79.6276 84.623C79.5807 84.6823 79.5338 84.7535 79.4987 84.8247L77.2486 89.8917C77.2017 90.0104 77.1666 90.129 77.1666 90.2596V96.9997C77.1666 97.4862 77.565 97.8897 78.0455 97.8897C78.526 97.8897 78.9244 97.4862 78.9244 96.9997V90.4494L80.7995 86.225L80.8347 86.2368L82.7214 81.8819L83.6355 79.8171C85.6981 75.1536 85.6278 69.8493 83.4363 65.2451L81.8894 61.9581ZM60.6544 51.2071V53.9957L55.1816 58.6355V50.2697C55.1816 49.3085 55.4628 48.3829 56.0019 47.5997L61.0177 40.1595C61.4278 39.5543 62.0489 39.139 62.7755 38.9966C63.4904 38.8542 64.217 39.0084 64.8264 39.4356C65.424 39.851 65.8342 40.4799 65.9748 41.2156C66.1155 41.9395 65.9631 42.6752 65.5412 43.2922L64.6154 44.6569C64.6037 44.6687 64.592 44.6925 64.5803 44.7043L61.8732 48.6796L61.8849 48.6915L61.0411 49.9493C60.7833 50.3053 60.6544 50.7443 60.6544 51.2071ZM70.182 63.394L67.7561 61.3055C67.4515 61.0444 67.1233 60.8308 66.7717 60.6765L71.4828 56.6776L70.182 63.394Z"/>
</mask>
<path d="M81.8894 61.9581C81.7605 61.6971 81.7136 61.4004 81.737 61.1037L82.5808 50.7681C82.6745 49.6052 82.2527 48.4779 81.4089 47.6709C80.5768 46.864 79.4401 46.4962 78.2916 46.6623C77.4127 46.781 76.5572 47.0776 75.7954 47.5167C75.7368 47.4336 75.6665 47.3505 75.6079 47.2675C74.0141 45.3451 71.1781 45.0959 69.2796 46.6979L62.4122 52.5243V51.219C62.4122 51.1241 62.4357 51.0291 62.4943 50.9461L63.924 48.8339C63.9474 48.7983 63.9592 48.7745 63.9826 48.7389L66.303 45.2977H66.2913L66.9827 44.2771C67.6624 43.2804 67.9085 42.07 67.6858 40.8715C67.4632 39.673 66.7952 38.6406 65.8108 37.9523C64.8264 37.2641 63.631 37.0149 62.4474 37.2404C61.2638 37.4658 60.2442 38.1422 59.5645 39.139L54.5487 46.5792C53.8104 47.6709 53.4237 48.9406 53.4237 50.2578V60.1188L50.7869 62.3497C48.9001 63.9517 47.8806 66.3962 48.0798 68.8881L48.5954 75.4621V75.5215L48.6423 76.0792C48.6423 76.1029 48.6423 76.1385 48.654 76.1622L48.9587 79.7578C48.9587 79.8052 48.9587 79.8646 48.9587 79.912C48.9587 79.9476 48.9704 79.9832 48.9704 80.0307L48.9822 80.1019C49.3337 82.582 50.3299 84.9197 51.8651 86.8658L55.4863 91.4699V96.9166C55.4863 97.4031 55.8847 97.8066 56.3652 97.8066C56.8457 97.8066 57.2441 97.4031 57.2441 96.9166V91.1614C57.2441 90.9597 57.1738 90.7698 57.0566 90.6037L53.2362 85.7622C51.9002 84.0534 51.033 82.0243 50.7166 79.8646L50.3299 75.3079L49.8142 68.7457C49.6619 66.8234 50.4471 64.9485 51.9002 63.7144L70.3812 48.0507C71.5414 47.0658 73.2641 47.22 74.2368 48.3948C75.2095 49.5696 75.0571 51.3139 73.897 52.2988L64.2756 60.463C63.6779 60.6054 63.1037 60.902 62.6115 61.3411L57.9238 65.4706C57.5605 65.791 57.5254 66.3487 57.8418 66.7284C58.1582 67.0963 58.709 67.1319 59.084 66.8115L63.7834 62.6701C64.6037 61.9463 65.7991 61.9463 66.6194 62.6582L73.7329 68.7813C74.2837 69.256 74.6235 69.9324 74.6821 70.6681C74.7407 71.4038 74.5181 72.1277 74.0376 72.6854C73.686 73.1007 73.229 73.3974 72.725 73.5398L67.7444 69.256C66.2561 67.9744 64.0998 67.9863 62.6115 69.2797L57.9121 73.4211C57.5488 73.7415 57.5137 74.2992 57.8301 74.6789C58.1465 75.0468 58.6973 75.0824 59.0723 74.762L63.7717 70.6206C64.592 69.8968 65.7873 69.8968 66.6077 70.6088L73.7212 76.7318C74.272 77.2065 74.6118 77.8829 74.6704 78.6186C74.729 79.3543 74.5063 80.0782 74.0259 80.6359C73.5571 81.1936 72.8891 81.5377 72.1625 81.5971C71.4359 81.6564 70.7211 81.4309 70.1703 80.9444L65.7639 77.1472C65.4123 76.8505 64.8967 76.8624 64.5803 77.1946L63.2912 78.5355C62.9513 78.8797 62.9513 79.4492 63.2912 79.7934C63.631 80.1375 64.1935 80.1375 64.5334 79.7934L65.2717 79.0458L69.057 82.3091C69.8773 83.0092 70.8969 83.3889 71.9633 83.3889C72.0805 83.3889 72.2094 83.3889 72.3266 83.377C73.5219 83.2821 74.6118 82.7125 75.3853 81.7869C76.1587 80.8613 76.5337 79.6866 76.44 78.4762C76.3462 77.2658 75.7837 76.1622 74.8696 75.3791L74.2134 74.8213C74.647 74.5603 75.0454 74.228 75.3736 73.8364C76.9791 71.9259 76.7447 69.0542 74.8579 67.4285L71.7055 64.7111L73.6157 54.862L75.0337 53.6516C75.9478 52.8684 76.522 51.7767 76.6275 50.5664C76.6744 50.068 76.6392 49.5814 76.522 49.1186C77.1314 48.7508 77.8111 48.5016 78.526 48.4067C79.1354 48.3236 79.7448 48.5253 80.1901 48.9525C80.6354 49.3797 80.8698 49.9849 80.8112 50.6138L79.9674 60.9495C79.9206 61.5547 80.026 62.1717 80.2956 62.7294L81.8542 66.0046C83.823 70.1341 83.8933 74.8925 82.0417 79.0695L81.5964 80.09H81.5847L79.6276 84.623C79.5807 84.6823 79.5338 84.7535 79.4987 84.8247L77.2486 89.8917C77.2017 90.0104 77.1666 90.129 77.1666 90.2596V96.9997C77.1666 97.4862 77.565 97.8897 78.0455 97.8897C78.526 97.8897 78.9244 97.4862 78.9244 96.9997V90.4494L80.7995 86.225L80.8347 86.2368L82.7214 81.8819L83.6355 79.8171C85.6981 75.1536 85.6278 69.8493 83.4363 65.2451L81.8894 61.9581ZM60.6544 51.2071V53.9957L55.1816 58.6355V50.2697C55.1816 49.3085 55.4628 48.3829 56.0019 47.5997L61.0177 40.1595C61.4278 39.5543 62.0489 39.139 62.7755 38.9966C63.4904 38.8542 64.217 39.0084 64.8264 39.4356C65.424 39.851 65.8342 40.4799 65.9748 41.2156C66.1155 41.9395 65.9631 42.6752 65.5412 43.2922L64.6154 44.6569C64.6037 44.6687 64.592 44.6925 64.5803 44.7043L61.8732 48.6796L61.8849 48.6915L61.0411 49.9493C60.7833 50.3053 60.6544 50.7443 60.6544 51.2071ZM70.182 63.394L67.7561 61.3055C67.4515 61.0444 67.1233 60.8308 66.7717 60.6765L71.4828 56.6776L70.182 63.394Z" fill="#2970BB"/>
<path d="M81.8894 61.9581C81.7605 61.6971 81.7136 61.4004 81.737 61.1037L82.5808 50.7681C82.6745 49.6052 82.2527 48.4779 81.4089 47.6709C80.5768 46.864 79.4401 46.4962 78.2916 46.6623C77.4127 46.781 76.5572 47.0776 75.7954 47.5167C75.7368 47.4336 75.6665 47.3505 75.6079 47.2675C74.0141 45.3451 71.1781 45.0959 69.2796 46.6979L62.4122 52.5243V51.219C62.4122 51.1241 62.4357 51.0291 62.4943 50.9461L63.924 48.8339C63.9474 48.7983 63.9592 48.7745 63.9826 48.7389L66.303 45.2977H66.2913L66.9827 44.2771C67.6624 43.2804 67.9085 42.07 67.6858 40.8715C67.4632 39.673 66.7952 38.6406 65.8108 37.9523C64.8264 37.2641 63.631 37.0149 62.4474 37.2404C61.2638 37.4658 60.2442 38.1422 59.5645 39.139L54.5487 46.5792C53.8104 47.6709 53.4237 48.9406 53.4237 50.2578V60.1188L50.7869 62.3497C48.9001 63.9517 47.8806 66.3962 48.0798 68.8881L48.5954 75.4621V75.5215L48.6423 76.0792C48.6423 76.1029 48.6423 76.1385 48.654 76.1622L48.9587 79.7578C48.9587 79.8052 48.9587 79.8646 48.9587 79.912C48.9587 79.9476 48.9704 79.9832 48.9704 80.0307L48.9822 80.1019C49.3337 82.582 50.3299 84.9197 51.8651 86.8658L55.4863 91.4699V96.9166C55.4863 97.4031 55.8847 97.8066 56.3652 97.8066C56.8457 97.8066 57.2441 97.4031 57.2441 96.9166V91.1614C57.2441 90.9597 57.1738 90.7698 57.0566 90.6037L53.2362 85.7622C51.9002 84.0534 51.033 82.0243 50.7166 79.8646L50.3299 75.3079L49.8142 68.7457C49.6619 66.8234 50.4471 64.9485 51.9002 63.7144L70.3812 48.0507C71.5414 47.0658 73.2641 47.22 74.2368 48.3948C75.2095 49.5696 75.0571 51.3139 73.897 52.2988L64.2756 60.463C63.6779 60.6054 63.1037 60.902 62.6115 61.3411L57.9238 65.4706C57.5605 65.791 57.5254 66.3487 57.8418 66.7284C58.1582 67.0963 58.709 67.1319 59.084 66.8115L63.7834 62.6701C64.6037 61.9463 65.7991 61.9463 66.6194 62.6582L73.7329 68.7813C74.2837 69.256 74.6235 69.9324 74.6821 70.6681C74.7407 71.4038 74.5181 72.1277 74.0376 72.6854C73.686 73.1007 73.229 73.3974 72.725 73.5398L67.7444 69.256C66.2561 67.9744 64.0998 67.9863 62.6115 69.2797L57.9121 73.4211C57.5488 73.7415 57.5137 74.2992 57.8301 74.6789C58.1465 75.0468 58.6973 75.0824 59.0723 74.762L63.7717 70.6206C64.592 69.8968 65.7873 69.8968 66.6077 70.6088L73.7212 76.7318C74.272 77.2065 74.6118 77.8829 74.6704 78.6186C74.729 79.3543 74.5063 80.0782 74.0259 80.6359C73.5571 81.1936 72.8891 81.5377 72.1625 81.5971C71.4359 81.6564 70.7211 81.4309 70.1703 80.9444L65.7639 77.1472C65.4123 76.8505 64.8967 76.8624 64.5803 77.1946L63.2912 78.5355C62.9513 78.8797 62.9513 79.4492 63.2912 79.7934C63.631 80.1375 64.1935 80.1375 64.5334 79.7934L65.2717 79.0458L69.057 82.3091C69.8773 83.0092 70.8969 83.3889 71.9633 83.3889C72.0805 83.3889 72.2094 83.3889 72.3266 83.377C73.5219 83.2821 74.6118 82.7125 75.3853 81.7869C76.1587 80.8613 76.5337 79.6866 76.44 78.4762C76.3462 77.2658 75.7837 76.1622 74.8696 75.3791L74.2134 74.8213C74.647 74.5603 75.0454 74.228 75.3736 73.8364C76.9791 71.9259 76.7447 69.0542 74.8579 67.4285L71.7055 64.7111L73.6157 54.862L75.0337 53.6516C75.9478 52.8684 76.522 51.7767 76.6275 50.5664C76.6744 50.068 76.6392 49.5814 76.522 49.1186C77.1314 48.7508 77.8111 48.5016 78.526 48.4067C79.1354 48.3236 79.7448 48.5253 80.1901 48.9525C80.6354 49.3797 80.8698 49.9849 80.8112 50.6138L79.9674 60.9495C79.9206 61.5547 80.026 62.1717 80.2956 62.7294L81.8542 66.0046C83.823 70.1341 83.8933 74.8925 82.0417 79.0695L81.5964 80.09H81.5847L79.6276 84.623C79.5807 84.6823 79.5338 84.7535 79.4987 84.8247L77.2486 89.8917C77.2017 90.0104 77.1666 90.129 77.1666 90.2596V96.9997C77.1666 97.4862 77.565 97.8897 78.0455 97.8897C78.526 97.8897 78.9244 97.4862 78.9244 96.9997V90.4494L80.7995 86.225L80.8347 86.2368L82.7214 81.8819L83.6355 79.8171C85.6981 75.1536 85.6278 69.8493 83.4363 65.2451L81.8894 61.9581ZM60.6544 51.2071V53.9957L55.1816 58.6355V50.2697C55.1816 49.3085 55.4628 48.3829 56.0019 47.5997L61.0177 40.1595C61.4278 39.5543 62.0489 39.139 62.7755 38.9966C63.4904 38.8542 64.217 39.0084 64.8264 39.4356C65.424 39.851 65.8342 40.4799 65.9748 41.2156C66.1155 41.9395 65.9631 42.6752 65.5412 43.2922L64.6154 44.6569C64.6037 44.6687 64.592 44.6925 64.5803 44.7043L61.8732 48.6796L61.8849 48.6915L61.0411 49.9493C60.7833 50.3053 60.6544 50.7443 60.6544 51.2071ZM70.182 63.394L67.7561 61.3055C67.4515 61.0444 67.1233 60.8308 66.7717 60.6765L71.4828 56.6776L70.182 63.394Z" stroke="#2970BB" mask="url(#path-3-outside-1)"/>
<path d="M75.5728 42.64C76.0532 42.64 76.4517 42.2365 76.4517 41.75V38.0002C76.4517 37.5137 76.0532 37.1102 75.5728 37.1102C75.0923 37.1102 74.6938 37.5137 74.6938 38.0002V41.75C74.6938 42.2484 75.0923 42.64 75.5728 42.64Z" fill="#C0B6EF"/>
<path fill-rule="evenodd" clip-rule="evenodd" d="M76.9517 41.75C76.9517 42.5068 76.3353 43.14 75.5728 43.14C74.8146 43.14 74.1938 42.523 74.1938 41.75V38.0002C74.1938 37.2435 74.8103 36.6102 75.5728 36.6102C76.3353 36.6102 76.9517 37.2435 76.9517 38.0002V41.75ZM76.4517 41.75C76.4517 42.2365 76.0532 42.64 75.5728 42.64C75.0923 42.64 74.6938 42.2484 74.6938 41.75V38.0002C74.6938 37.5137 75.0923 37.1102 75.5728 37.1102C76.0532 37.1102 76.4517 37.5137 76.4517 38.0002V41.75Z" fill="#C0B6EF"/>
<path d="M79.3229 43.5301C79.4636 43.6013 79.6042 43.6369 79.7448 43.6369C80.0495 43.6369 80.3542 43.4707 80.5183 43.1859L82.323 39.9108C82.5574 39.4836 82.4051 38.9377 81.9832 38.7004C81.5613 38.4631 81.0222 38.6174 80.7878 39.0445L78.9831 42.3197C78.7487 42.7469 78.9011 43.2809 79.3229 43.5301Z" fill="#C0B6EF"/>
<path fill-rule="evenodd" clip-rule="evenodd" d="M79.0824 43.9687L79.0685 43.9605C78.42 43.5774 78.1771 42.7489 78.5445 42.0791L80.3493 38.8039C80.3494 38.8038 80.3492 38.8041 80.3493 38.8039C80.7169 38.1345 81.5627 37.8902 82.2281 38.2645C82.893 38.6386 83.1252 39.4879 82.7612 40.1512L80.9514 43.4355C80.6965 43.878 80.2249 44.1368 79.7446 44.1368C79.5165 44.1368 79.299 44.0784 79.0969 43.9761L79.0824 43.9687ZM80.5181 43.1858C80.354 43.4706 80.0493 43.6368 79.7446 43.6368C79.604 43.6368 79.4634 43.6012 79.3228 43.53C78.9009 43.2808 78.7485 42.7468 78.9829 42.3196L80.7877 39.0445C81.022 38.6173 81.5611 38.463 81.983 38.7003C82.4049 38.9377 82.5572 39.4835 82.3229 39.9107L80.5181 43.1858Z" fill="#C0B6EF"/>
<path d="M86.8114 43.2333C86.5536 42.818 86.0145 42.6874 85.6044 42.9485L82.452 44.9302C82.0418 45.1913 81.9129 45.7371 82.1707 46.1524C82.3348 46.4254 82.6277 46.5678 82.9207 46.5678C83.0731 46.5678 83.2371 46.5203 83.3778 46.4372L86.5302 44.4555C86.9403 44.1945 87.0693 43.6486 86.8114 43.2333Z" fill="#C0B6EF"/>
<path fill-rule="evenodd" clip-rule="evenodd" d="M82.4521 44.9302L85.6045 42.9485C86.0147 42.6874 86.5538 42.818 86.8116 43.2333C87.0694 43.6486 86.9405 44.1945 86.5303 44.4555L83.3779 46.4372C83.2373 46.5203 83.0732 46.5677 82.9209 46.5677C82.6279 46.5677 82.3349 46.4254 82.1709 46.1524C81.9131 45.7371 82.042 45.1912 82.4521 44.9302ZM81.7442 46.4131C81.3426 45.7625 81.5463 44.914 82.1837 44.5084L82.186 44.5069L85.3374 42.5258C85.9896 42.1117 86.8367 42.3257 87.2364 42.9696C87.6406 43.6206 87.4371 44.4711 86.7988 44.8773L86.7965 44.8788L83.6323 46.8679C83.4222 46.992 83.171 47.0677 82.9209 47.0677C82.472 47.0677 82.0082 46.8496 81.7442 46.4131Z" fill="#C0B6EF"/>
</g>
<defs>
<filter id="filter0_f" x="-4" y="-4" width="142" height="142" filterUnits="userSpaceOnUse" color-interpolation-filters="sRGB">
<feFlood flood-opacity="0" result="BackgroundImageFix"/>
<feBlend mode="normal" in="SourceGraphic" in2="BackgroundImageFix" result="shape"/>
<feGaussianBlur stdDeviation="10.5" result="effect1_foregroundBlur"/>
</filter>
<clipPath id="clip0">
<rect width="135" height="135" fill="white"/>
</clipPath>
</defs>
</svg>
