<svg width="135" height="135" viewBox="0 0 135 135" fill="none" xmlns="http://www.w3.org/2000/svg">
<g clip-path="url(#clip0)">
<rect width="135" height="135" fill="white"/>
<g filter="url(#filter0_f)">
<circle cx="67" cy="67" r="50" fill="#DDD7FA"/>
</g>
<circle cx="67" cy="67" r="50" fill="white"/>
<path d="M49.8755 94.9405L89.3 72.1788C89.9848 71.7834 90.4859 71.1336 90.6941 70.3707L95.1515 54.041C95.5897 52.4356 94.6375 50.7803 93.0294 50.352L76.6186 45.9814C75.8512 45.7771 75.0342 45.8853 74.3465 46.2823L34.9236 69.0431C33.4888 69.8715 32.9971 71.7063 33.8256 73.1412L45.7774 93.8424C46.6059 95.2773 48.4406 95.7689 49.8755 94.9405Z" fill="white" stroke="#2970BB" stroke-width="4" stroke-linejoin="bevel"/>
<path d="M48.4883 81.1433L46.1885 77.1599C45.8499 76.5735 45.6381 75.9591 45.5528 75.3167C45.4643 74.6687 45.5035 74.0334 45.6703 73.4109C45.8395 72.7794 46.1421 72.1837 46.5781 71.6238C47.0197 71.0606 47.5929 70.5755 48.2977 70.1686C49.0025 69.7617 49.7063 69.5095 50.4092 69.4119C51.1122 69.3143 51.7821 69.3484 52.4192 69.5144C53.053 69.6747 53.6296 69.9507 54.149 70.3425C54.6684 70.7342 55.0989 71.2261 55.4407 71.8181L57.7405 75.8015C58.0791 76.3879 58.2882 77.0039 58.3677 77.6495C58.4473 78.2952 58.3997 78.9354 58.2249 79.5701C58.0501 80.2048 57.7446 80.8021 57.3086 81.362C56.8727 81.922 56.3023 82.4054 55.5975 82.8123C54.8927 83.2192 54.1861 83.4731 53.4775 83.5739C52.7746 83.6715 52.1074 83.6357 51.476 83.4666C50.8502 83.2941 50.2804 83.0104 49.7667 82.6154C49.253 82.2204 48.8268 81.7297 48.4883 81.1433ZM51.2961 79.5222C51.4491 79.7872 51.6334 80.0153 51.8491 80.2065C52.0647 80.3978 52.3036 80.538 52.5656 80.6273C52.8244 80.7109 53.0975 80.7412 53.3848 80.7181C53.669 80.6894 53.9492 80.5953 54.2254 80.4358C54.5017 80.2763 54.7261 80.0791 54.8987 79.8441C55.068 79.6035 55.1783 79.3519 55.2296 79.0892C55.2833 78.8176 55.2841 78.539 55.232 78.2534C55.1855 77.9645 55.0857 77.6876 54.9327 77.4226L52.6329 73.4392C52.4799 73.1742 52.29 72.9494 52.063 72.7646C51.8417 72.5767 51.6001 72.438 51.338 72.3488C51.0816 72.2562 50.8086 72.2259 50.5188 72.2579C50.2258 72.2843 49.9412 72.3772 49.6649 72.5367C49.3886 72.6962 49.1686 72.8946 49.005 73.1319C48.838 73.3636 48.7277 73.6153 48.674 73.8868C48.6203 74.1584 48.6223 74.4354 48.6801 74.7178C48.7379 75.0001 48.8433 75.2738 48.9963 75.5388L51.2961 79.5222Z" fill="#C0B6EF"/>
<path d="M57.5946 71.0369L56.3446 68.8719C56.159 68.5505 56.0408 68.209 55.9899 67.8475C55.9415 67.477 55.9693 67.1151 56.0735 66.7618C56.1777 66.4084 56.3604 66.0737 56.6214 65.7576C56.8848 65.4326 57.2252 65.1497 57.6424 64.9088C58.0596 64.6679 58.4692 64.5179 58.871 64.4588C59.2697 64.394 59.648 64.4049 60.0062 64.4913C60.3643 64.5777 60.69 64.7317 60.9833 64.9533C61.2823 65.1716 61.5261 65.4443 61.7149 65.7713L62.9649 67.9363C63.1505 68.2577 63.2631 68.6024 63.3026 68.9705C63.3479 69.3353 63.3184 69.6944 63.2142 70.0477C63.11 70.4011 62.9318 70.737 62.6796 71.0555C62.4242 71.3683 62.0879 71.6452 61.6707 71.8861C61.2535 72.1269 60.8399 72.283 60.43 72.3543C60.0225 72.4167 59.6397 72.4047 59.2815 72.3182C58.9234 72.2318 58.5977 72.0778 58.3044 71.8562C58.0167 71.6314 57.7801 71.3583 57.5946 71.0369ZM59.4552 69.9627C59.5951 70.2052 59.7905 70.3743 60.0413 70.4701C60.2944 70.5569 60.5478 70.5272 60.8016 70.3807C61.0553 70.2342 61.205 70.0312 61.2507 69.7718C61.2987 69.5035 61.2528 69.2481 61.1128 69.0057L59.8628 66.8406C59.7228 66.5982 59.5246 66.4307 59.2682 66.3382C59.0175 66.2424 58.7652 66.2677 58.5115 66.4142C58.2578 66.5607 58.1069 66.7681 58.0588 67.0364C58.0164 67.3015 58.0652 67.5552 58.2052 67.7976L59.4552 69.9627ZM64.5969 77.2669L63.9674 60.2196L66.33 60.0734L66.9474 77.1389L64.5969 77.2669ZM69.4042 71.4919L68.1542 69.3268C67.9687 69.0054 67.8505 68.664 67.7996 68.3024C67.7511 67.932 67.779 67.5701 67.8832 67.2167C67.9874 66.8634 68.17 66.5287 68.4311 66.2126C68.6945 65.8876 69.0348 65.6046 69.452 65.3638C69.8693 65.1229 70.2788 64.9729 70.6807 64.9137C71.0793 64.849 71.4577 64.8598 71.8158 64.9462C72.174 65.0327 72.4997 65.1867 72.793 65.4082C73.0919 65.6265 73.3358 65.8992 73.5246 66.2262L74.7746 68.3913C74.9602 68.7127 75.0744 69.0602 75.1172 69.4339C75.1624 69.7987 75.1329 70.1578 75.0287 70.5111C74.9213 70.8588 74.7415 71.1919 74.4893 71.5104C74.2339 71.8233 73.8976 72.1001 73.4804 72.341C73.0631 72.5819 72.6496 72.738 72.2397 72.8092C71.8321 72.8716 71.451 72.8624 71.0961 72.7816C70.738 72.6952 70.4123 72.5412 70.1189 72.3196C69.828 72.0892 69.5898 71.8133 69.4042 71.4919ZM71.2648 70.4177C71.4048 70.6601 71.6002 70.8292 71.8509 70.925C72.1041 71.0119 72.3575 70.9821 72.6112 70.8356C72.8649 70.6891 73.0146 70.4862 73.0603 70.2268C73.1084 69.9584 73.0624 69.7031 72.9225 69.4606L71.6725 67.2956C71.5325 67.0531 71.3343 66.8856 71.0779 66.7931C70.8271 66.6973 70.5749 66.7227 70.3212 66.8691C70.0675 67.0156 69.9166 67.223 69.8685 67.4913C69.8261 67.7564 69.8749 68.0101 70.0148 68.2526L71.2648 70.4177Z" fill="#C0B6EF"/>
<circle cx="81.7628" cy="58.5871" r="3.98547" transform="rotate(-30 81.7628 58.5871)" fill="white" stroke="#2970BB" stroke-width="2"/>
</g>
<defs>
<filter id="filter0_f" x="-4" y="-4" width="142" height="142" filterUnits="userSpaceOnUse" color-interpolation-filters="sRGB">
<feFlood flood-opacity="0" result="BackgroundImageFix"/>
<feBlend mode="normal" in="SourceGraphic" in2="BackgroundImageFix" result="shape"/>
<feGaussianBlur stdDeviation="10.5" result="effect1_foregroundBlur"/>
</filter>
<clipPath id="clip0">
<rect width="135" height="135" fill="white"/>
</clipPath>
</defs>
</svg>
